<?xml version="1.0" encoding="utf-8"?>
<!-- Generator: Adobe Illustrator 23.0.0, SVG Export Plug-In . SVG Version: 6.00 Build 0)  -->
<svg version="1.1" id="RGB_Maroon" xmlns="http://www.w3.org/2000/svg" xmlns:xlink="http://www.w3.org/1999/xlink" x="0px" y="0px"
	 viewBox="0 0 131.9 161.6" style="enable-background:new 0 0 131.9 161.6;" xml:space="preserve">
<style type="text/css">
	.st0{fill:#FFFFFF;}
</style>
<g>
	<path class="st0" d="M125.2,92.6l0-84.9C57,1.2,5.5,7.8,5.5,7.8s0,84.9,0,84.9c5.4,57.5,59.3,64.3,59.8,64.2
		C75,155.1,120.2,146,125.2,92.6L125.2,92.6z M122.2,92.2c-4.8,51.3-47.7,60-56.8,61.6c-0.5,0.1-51.7-6.4-56.8-61.6
		c0,0,0-81.5,0-81.5s48.9-6.3,113.6,0L122.2,92.2L122.2,92.2z M104.8,122.3c1.9-2.7,3-5.7,3.7-8.9c-1.1,1.5-2.7,2.7-4.4,3.4
		C102.9,120.5,103.5,124.3,104.8,122.3L104.8,122.3z M106.7,114.1c1.4-1.2,2.2-3.1,3.9-3.7c-1.3-1.2-2.6,1.2-3.3,0.4
		c1.2-1.9,2-3.4,2.1-5.8c0.1-1.3,1.6-2.5,1.9-3.2c-1.5,0.2-5.3,2.5-6.1,3.8c-2.6,3.4-2.5,6.7-13.4,11.5c-0.5,0,2-1.9,2.7-4
		c0.3-1,1.8-5.7,0.8-7.9c-2.3,2.3-1.8,3-2.4,4.7c-1.6,4.5-2.5,4.9-6.6,7.6c-0.5,0.4-3.7,5.2-7.7,5.4c0.4-0.1,0.2-1.1,1.5-2
		c4.5-3,2.8-9.4,8.7-10.4c-2.9-1-5,1.8-5.5,1.5c2.4-3.3,0.3-6.1,0.6-8.8c-0.8,0.4-1.6,1.4-1.7,2.2c-0.4,4.8-2.7,5.6-2.9,7.7
		c0.5,3.4-2.3,6.1-4.3,8.5c-0.4-2,0.1-3.8,2.6-5.4c1.4-0.9-0.1-3.6-0.1-3.6c-0.6,3-2.2,3.9-3.3,4.1c-0.9,0.1,3.2-4.2,2.7-8.1
		c-0.2-1.8-0.7-1-1-2.9c-3.6,3.9-1,6.4-4.6,10.9c-1.7,2.2-2.4,6-2.6,6c0-5.6,0.2-4,2.7-8.6c2.1-3.8-0.1-7.3-0.4-9.6
		c-4.5,3.1-4.1,9.1-4.3,7.8c-0.1-1.3-0.7-3.5-0.1-5.6c1-3.4-1.1-8.5-1.1-8.5c-6.3,9.9-1,21.5-1.4,21.4c-2.7-4.3-4.8-4.5-5.3-7.8
		c-0.3-1.8-3.6-11.6-9.6-11.8c3,2.6,2.3,3,2.5,7.2c-1.9,10.7,13,11.8,12,17.3c-2-3.3-5.2-4.7-9.9-7.2c-2.1-1.7-4.4-2.4-4.6-5
		c0.2-1.9,0.4-1.5,0-3.9c-0.2-1.7-1.9-0.7-3.2-4.3c-2.7,2.4-1.7,5.2-1.5,6.8c0.1,0.4,0.4,2.1,0,3.1c-1-0.7-1.6-2-2.7-3.4
		c-1.9-2.5-1.9-5.5-2.9-7.6c-0.4-1-1.1-2.3-1.5-2.3l-0.1,0c-0.5,3.9-0.2,7.3,1.5,10.2c0,0-0.5,0.8-0.9,1c-1.7-0.4-4-1.8-5-4.6
		c-2.1,1.7-0.6,4-0.7,4c-4.7-2.4,0.1-11.7-6.6-11.4c1.6,1.8,0.6,4.1,0.5,6.2c0,3.5,4.4,6.2,4.4,6.2c-4.9-1.7-5.9,0.6-5.9,0.6
		c0,0,7.3,3.2,18.7,4.3c1.5,0.2,3.6,1.9,3.2,1.9c-1.5-0.1-4.4-2-8.6,1.7c2.5,0.1,4.2,4.1,8.2,1.8c10.4-2.9,14.2,2.2,15.9,3.5
		c-0.4,0.6-8-4.8-14-1.2c-3.2,1.9-8.4,0.2-12.4-2.8c1.6,4.2,8.6,8.9,10.9,8.9c2.8,0,6.4-3.7,10.5-3.5c6.5,0.3,7.5,6.2,6.7,5.7
		c0,0-5.1-8.5-11.8,0.6c3.1-1.4,7.2-1.1,10.8,0.7c0.5,0.2-0.9,1.8-1.9,2.9c-0.6,0.7-3.4,4.8-6.4,0.8c-0.4-0.6-1.9-4.3-11.2-3.5
		c3.5,1.6,7.4,5.8,9.3,7.7c4.9,4.8,12.3-5.9,12.6-4.7c0,2.4,1.2,3.6,1.9,4.9c1.6,3.3-2.1,2.7-4.1,1.9c0,0,3.9,6,7.1,2.7
		c3.6-3.7-4.7-6.5-2.1-9.5c1.5-1.7,6.7,3.7,9,3.7c6.3,0.7,6-5.3,9.4-5.1c-3.1-3.2-6.5-1.5-7.2-0.6c-2.1,2.5-4.6,0.8-6.3-0.5
		c-0.9-1.2-2.5-1.4-3.9-1c-0.7,0.1,1.3-2.3,3.9-1.8c5.8,1.1,11.7-1,13.1-1.8c2.3-1.3,3.7-3.6,6.3-6.1c-0.8,0.2-5.7,2.9-7.2,3.6
		c-4.7,2.4-7.6-0.7-8.1-0.7c-0.9,0-0.7-0.7,0.7-1.1c4.8-1.1,8.1-5.3,12.7-7C96,116.8,102.4,118.3,106.7,114.1L106.7,114.1z
		 M97.1,107.8c-0.1,1-0.1,1.8-0.5,2.9c0,0.1,1.1,0.6,1.6,1c0.7-0.7,1.4-1,2.2-2c-0.2-0.1-3.2-2.8-3.3-2.7
		C97.2,107.4,97.2,107.3,97.1,107.8L97.1,107.8z M97.6,112.4c0,0-1.2-0.9-1.2-0.7c-0.2,0.5-0.4,1.1-0.8,1.8
		C95.3,114,96.2,113.6,97.6,112.4L97.6,112.4z M111.5,100.3c-0.3-11-7-23.2-5.2-20.9c4.6,5.7,6.1,18,9.2,28.6c0,0,2,1,1.6-12.4
		c-0.1-2.7-1.2-6.3-2.5-8.9c-2.7-5-8.1-13.4-7.9-13.5c1.3-1.1,4.5,6.2,7.2,9.1c1.8,1.8,6.8,3.7,7.1,3.4c-4-7.7-13.7-15-12.6-15.9
		c7.1,6.7,9.4,7,9.7,6.6l-6.4-6.2c-1.8-2.4-4.2-4.3-3.9-4.2c2.9,0.6-1.5-2.4-4.9-3.3c-0.6-0.2-1.6-0.2-1.6-0.5
		c-0.1-0.5,0.8-0.3,1.5-0.5c0.5-0.1,0.9-0.5,0.9-1.2c-1.3,0.3-2.6,0-3.7-0.5c-2.3-1.1-6.3-2.3-8.2-1.5c-1.1,0.4-1.3,0.4-2.5,1.3
		c-0.5-0.2-1.9-1.1-4,1.3c-0.6,0.8-1.4,1.6-1.4,2.3c-0.1,1.6,0,0.1,0.4,1.6c0.2,0.7-0.6,1.8-3.6,2.8c-1.2,0.4-0.9,1.5-0.9,1.5
		c0.6-0.3,1.5-0.9,2.9-0.3c2.7,1.3,3.3-0.7,5-2.2c0,0-0.5,1.8,0,1.9c2.1,0.4,1.4,2,1.1,2.3c-2.7,2.4-1.5,3.3-2.5,4.7
		c-0.9,1.4-2.3,1.9-4.3,1.8c-2.8-0.1,3.7-4.4-2.6-6.2c1,1.6,1.4,3-0.8,4.2c-1.4,0.8-0.7,4.9-4.2,3c0,0-0.3,3-0.7,3.2
		c4.8,4.2,2.1,6.5,2.4,12.6c1.5,3.8-0.1,5.7-0.5,5.9c0.2,2.6,0.5,4,2.1,6.2c1.2,1.5-0.1,3.9,1.1,5.5c1.1-3.9,2.3-2.3,2.6-7.7
		c0.4-0.9,2.3-2.5,3.3-2.6c0,3.3,1.2,6.3,0.9,7.7c0,0,2.8-0.5,3.6-0.2c0.7,0.2,1.2,1.1,1.2,1.7c-0.9,0.6-0.9,0.4-2.4,1.4
		c-2.5,1.8-3.6,5.5-3.6,5.5c0,0,5.9-4.7,6.3-5.5c0.3-0.7,0.7-1.7,1-2.8c0-0.1-3-1.9-3.9-3.5c-2.6-5.1,4.1,3,4.2,2.3
		c0.4-1.8,1.6-3.4,1.6-3.4c-0.4-0.5-1.5-0.8-3.1-3.6c-3.6-6.4,4.2,2.7,4.2,2.7c2.1-1.2,2.1,0.4,2.4,2.1c0,0.2,3.5,2.8,3.7,2.9
		c1-0.9,1.7-2.2,2.1-3c0.1-0.1-6.4-5.8-7.5-7.7c-8.8-15.2,7.2,6.7,7.9,6.1c0.4-1.2,0.6-2.8,0.5-5c0-0.1-3-2.1-4.9-5.3
		c-7.4-12.3,4.9,3.7,4.9,3.5c-0.1-2.6-2.3-14-0.8-10.6c0.8,1.8,3.2,9,2.7,16.4C106.8,102,110.2,100.6,111.5,100.3L111.5,100.3z
		 M116.4,27.2c0.1,0.4,0.1,0.8,0.1,1C116.5,28,116.4,27.7,116.4,27.2c0,0-0.2-4.1-4.6-4.1c-1.4,0-3.2,1.7-7.6-0.2v7
		c1.8,0.5,6.7-2.3,8.7-3.2C114.3,26.1,116.3,26.5,116.4,27.2L116.4,27.2z M104,37.3v7c0,0,3.9,0,8.2-2.8c1.3-0.8,3.2-0.5,4.2,0.3h0
		c0,0-0.6-4.6-4.4-4C104.8,38.7,104,37.3,104,37.3L104,37.3z M77.5,48.3c3.7,0,18.2,4,25.2,3.5V15.3c0,0-10.3,1.5-19.2-1.8
		c-7.3-2.7-17.3,2-17.3,2c0,1.2,0,35.8,0,35.8S69.9,48.3,77.5,48.3L77.5,48.3z M69.6,36.3c0.3,0,1.4,0.1,1.8,0.1c0,0.8,0,6.2,0,6.8
		c0,0.6,0.5,0.7,1,0.5c0.2-0.1,0.5,0.1,0.1,0.3c-0.5,0.4-1.2,1.3-1.5,1.7c-0.6-0.4-1.3-0.9-1.2-1.4C69.9,43.3,69.7,37,69.6,36.3
		L69.6,36.3z M71.6,28.4c1.1-0.6,3.4-0.9,4.3-0.7c0.4,0.1,0.8,0,0.8-0.2c0-0.3,0.4-0.2,0.4,0c0,0.2,0,2.8,0,3.1c0,0.3-0.4,0.2-0.4,0
		c0-0.4,0-0.5-0.3-1c-1-1.4-3.6-1.6-4.9,0.2c-0.4,0.6-0.6,1.6-0.1,1.8c0.5,0.2,2.4,0,3-0.1c0.6-0.1,2.1-0.4,2.3-0.5
		c0.2-0.1,0.4-0.2,0.4,0c0,0.3,0,1.3,0,1.6c0,0.3-0.2,0.2-0.4,0c-0.2-0.1-1.6-0.2-2.2-0.3c-1-0.1-2.6-0.4-3.1-0.3
		c-0.5,0.2-0.1,0.9,0.3,1.5c1.3,1.7,3.7,1.8,4.7,0.4c0.4-0.5,0.4-0.6,0.4-1c0-0.2,0.4-0.3,0.4,0c0,0.2,0,2.4,0,2.6
		c0,0.2-0.4,0.3-0.4,0c0-0.5-0.3-0.4-0.8-0.3c-1.4,0.4-3.3,0.5-4.4-0.1c-1.2-0.7-2.2-0.9-2.2-3.5C69.2,30.2,70.6,28.9,71.6,28.4
		L71.6,28.4z M79.2,17.3c-0.6,0.2-1.1,0.8-1.2,1.5c-0.1,0.7-2.3,6.8-2.5,7.2c-0.5-1.9-2.6-6.5-3.3-7.5c-0.6-0.9-1.2-0.7-1.7-0.7
		c-0.5,0-0.3-0.5,0.1-0.5c0.6,0.1,4,0.4,4.9,0.5c0.3,0.1,0.4,0.4-0.1,0.5c-0.2,0.1-0.8,0.3-0.8,0.6c0,0.4,1.2,3.1,1.6,3.6
		c0.3-0.7,1.4-3.6,1.2-4.3c-0.3-0.6-0.3-0.7-0.8-0.8c-0.5-0.1-0.5-0.3,0.1-0.4c0.6-0.1,2.2-0.2,2.7-0.2
		C79.8,16.8,79.8,17.1,79.2,17.3L79.2,17.3z M82.8,17.3l-0.6,0.5h-0.5l-0.5-0.5l0-1l0.8-0.7l0.9,0.8V17.3L82.8,17.3z M84.3,24.5
		L83.2,26h-1.1c-0.5-0.5-0.9-0.9-1-1.3l-0.1-3.5l-1.3-0.8c-0.2,0.3-0.7,0.3-0.5,0.1l1.8-1.6l0.4,0l1.2,1.2l0,3.6
		C83.1,24.2,83.5,24.4,84.3,24.5L84.3,24.5z M90.7,20.3c-0.3,0-3,0.3-3,0.3c-0.1,0.1,0.1,3.4,0.2,3.7c0.1,0.3,0.3,0.7,0.7,0.4
		c0.3-0.3,0.6,0.2,0.3,0.5c-0.2,0.2-0.8,1.3-1.1,1.5c-0.4,0.3-1.1-0.6-1.3-1.2c-0.3-0.9-0.5-3.2-0.5-4.8c0.1,0-1.3-0.5-0.7-0.8
		c1.2-0.5,2.4-2.1,2.5-2.5c0.1-0.4,0.5-0.2,0.3,0.2c-0.4,0.8-0.4,1.4-0.2,1.9c0.1,0.1,2.4,0.1,2.7,0.1
		C90.9,19.7,90.9,20.3,90.7,20.3L90.7,20.3z M87.5,32c-0.2,1.2,0.8,2.1,1.6,2.6c0.6,0.3,1.7,0.1,2,0.1c0.3,0,0.2-0.1,0.4-0.3
		c0.2-0.2,0.4,0,0.3,0.2c-0.2,0.2-1.8,1.7-2.2,2c-0.4,0.1-1.3,0.1-1.8-0.6c-0.9-1.2-1.6-1.6-1.3-3.7c0.2-1.5,2.6-2.7,3.2-3
		c0.2,0.2,1.3,1.4,1.8,1.8c-0.2,0.2-0.8,0.5-1.4,0.5c-0.6,0-1-0.5-1.4-0.9C88.3,30.7,87.7,31.1,87.5,32L87.5,32z M97.2,26.2
		l-1.5,1.6c-0.4-0.3-0.7-0.6-0.8-1.2c-1.1,0.2-1.9,0.9-2.4,1.3c-0.5-0.4-1.2-1.5-1.2-2.3c0-0.8,0.6-1.9,1-2.3c0,0,0.1,0,0.1,0.1
		c-0.2-0.1-0.5-0.3-0.6-0.4c-0.2-0.1-0.2-0.5,0-0.8c0.3-0.4,1.2-1.5,2.1-1.7c0.5-0.1,1.3,0.1,2.4,1c-0.1,0.2-0.1,3.4-0.1,3.7
		C96.5,25.7,97.2,26.2,97.2,26.2L97.2,26.2z M100.2,33.4c-0.5,0-1-0.1-1.2-0.2c-0.4-0.1-0.2-0.6,0.1-0.6c0.3,0,0.9,0.1,1.1,0.2
		C100.4,33,100.5,33.5,100.2,33.4L100.2,33.4z M100.2,34.6c-0.5,0-1-0.1-1.2-0.2c-0.4-0.1-0.2-0.6,0.1-0.6c0.3,0,0.9,0.1,1.1,0.2
		C100.4,34.1,100.5,34.6,100.2,34.6L100.2,34.6z M92.5,41.3c0.5-0.3,1.6-1.3,2-1.6c0.7,0.5,1.1,1,1.4,1.4c0.4-0.2,1.1-0.7,1.5-1
		c0.6,0.4,1.2,1,1.5,1.2c0.3-0.3,0.7-0.1,0.3,0.3c-0.3,0.3-1.1,1-1.4,1.2c-0.4-0.2-1.2-1.1-1.4-1.2c-0.1,0.1-0.4,0.2-0.6,0.3
		c0,0.5,0,4.2,0,4.7c-0.6,0-1.1,0.1-1.6,0c0-0.6,0-3.9,0-4.4C94.3,41.6,93.2,41.3,92.5,41.3L92.5,41.3z M92.3,34
		c0.1-1.9,1.3-3.5,3.3-4.2c1.6,0.5,2.3,2.2,2.3,3.2c0,0.9-0.5,2.1-0.9,2.8c-0.6,0.4-1.3,1-1.9,1.6C93.2,37.4,92.3,35.1,92.3,34
		L92.3,34z M84.8,40.2c0.6-0.6,1.2-1.1,1.6-1.4c0.6,0.5,0.8,0.7,1.2,1.3c0,0.8-0.2,2.6-0.1,3.2c0,0.6,2.4,1,2.5,0.1
		c0.1-0.9,0-2,0-2.5c0-0.4-1-0.6-1.5-0.5c0.6-0.7,1.2-1.2,1.6-1.5c0.6,0.4,1.1,1,1.5,1.6c0,0.9-0.2,3,0,3.5c0.2,0.6,0.1,0.6,0.5,0.9
		c-0.4,0.4-0.8,0.6-1.1,0.9c-0.4-0.1-1.2-0.8-1.2-1.4c-0.5,0.4-2.1,1-2.7,1.2c-0.6-0.6-1-0.8-1.1-1.5c0-0.7,0.2-2.7-0.1-3.2
		C85.7,40.4,85.3,40.3,84.8,40.2L84.8,40.2z M83.4,34.9c-0.6-0.3-1.4-1.1-1.8-1.7c-0.8,1-1,1.8-2.4,2.2c0.8-0.7,1.6-2.2,1.5-3.6
		c-0.1-1.3-0.8-1.9-1.4-2.2c-0.5,0.3-1,0.6-1.3,0.7c-0.3,0.1-0.4-0.3-0.2-0.4c0.7-0.3,2.2-1.5,2.4-1.7c0.6,0.1,1.4,0.7,1.5,1.2
		c0.5-0.3,1.3-1.2,1.6-1.4c0.3,0.5,1.2,1.1,2.1,1.5c-0.9,1.5-2.8,0.6-3.1,0.2c-0.3,0.5-0.4,0.8-0.1,1.5c0.4,0.9,2,1.7,2.8,2
		C85,33.3,83.8,34.6,83.4,34.9L83.4,34.9z M81.2,39.5c0.1,0-1.3-0.5-0.7-0.8c1-0.5,2-1.5,2.2-2c0.2-0.4,0.5-0.2,0.3,0.2
		c-0.2,0.4-0.3,1.4-0.2,1.7c0,0.1,0.8,0.2,1.2,0.2c0.2,0,0.2,0.6,0,0.6c-0.3,0-1.2,0-1.2,0c-0.1,0.1,0,3.4,0,3.7
		c0.1,0.3,0.9,0.5,1.2,0.2c0.3-0.3,0.6,0,0.2,0.3c-0.2,0.2-0.8,1.1-1.3,1.3c-0.5,0.2-1.2-0.1-1.6-0.6C80.9,43.5,81.2,41,81.2,39.5
		L81.2,39.5z M78.1,44.8c-0.5-0.4-0.9-0.5-1.1-1.1c-1.3,0.5-1.7,1.2-2.5,1.8c-0.4-0.4-0.8-1.2-0.8-1.9c0-0.8,0.7-1.8,1.1-2.2
		c-0.1,0-0.1-0.1-0.1-0.1c-0.2-0.1-0.4-1.3-0.2-1.5c0.3-0.4,1.4-2,2.3-2c0.6-0.1,1.1,0.7,1.6,1.3c-0.1,0.2-0.1,2.9-0.1,3.2
		c0.6,0.6,0.8,0.8,1.1,0.5c0.3-0.2,0.5,0,0.2,0.2C79.5,43.2,78.4,44.5,78.1,44.8L78.1,44.8z M77,41.5c0-0.6,0-1.1-0.1-1.4
		c0-0.4-0.9-1-1.1-1.1c-0.3,0-0.5,0.1-0.8,0.6c-0.2,0.3-0.1,1.3,0,1.4C75.8,41.7,76.3,41.6,77,41.5L77,41.5z M75.5,41.9
		c-0.7,1.3-0.1,1.6,0.3,1.9c0.5-0.2,0.9-0.5,1.2-0.7c0-0.2,0-0.7,0-1.2C76.2,42,75.9,42.2,75.5,41.9L75.5,41.9z M93.7,34.2
		c0.3,0.8,1.7,1.9,2.1,2.1c0.6-0.7,0.9-1.9,0.7-3c-0.1-0.8-1.2-1.7-2.1-2C93.3,31.9,93.3,33.1,93.7,34.2L93.7,34.2z M93.7,26.6
		c0.5-0.2,0.8-0.3,1.2-0.3c0-0.2,0-0.4,0-0.6c0-0.2,0-0.7,0-1.2c-0.6-0.2-1.4-0.5-2.1-0.9c0.1,0.1,0.2,0.1,0.3,0.2
		C92.3,25.1,93.3,26.3,93.7,26.6L93.7,26.6z M92.2,22.8c0.5,0.4,1.9,1.1,2.6,1.3c0-0.6,0-1.2-0.1-1.5c0-0.4-1.4-1.2-1.6-1.2
		c-0.3,0-0.6,0.4-1,0.9C92.1,22.6,92.1,22.7,92.2,22.8L92.2,22.8z M64.9,55.9c-1.1,0.1-2.5,0.8-2.9,2c-0.7,0.7-0.7-1.2-2.1-0.4
		c-0.6,0.8,1,2.6,0.6,2.7c-1.6,0.5-1.4-2.3-2.2-2.4c-1.3,0.5-4.5,3.4-1.3,5.7c-0.1-1.6,2.9-3.3,3.9,0.2c3-0.2,4,1.6,4.3,2.6
		c4.4,0.8,3.1,3.7,3,3.7c-0.4-0.6-2.3-3.5-5.4-1.5c-0.7,0.5-2,0.9-2.6,0.3c0.1,1,1.3,1.9,2.1,1.6c2.7-0.8,3.4,1.8,1.3,2.5
		c0.5,0.7,1.3,0.7,2.1,0.2c1.2-0.7,1.3-1.4,1.7-1.8c0.7,3.6-3.8,3.9-5.2,4.1c0.2,0.8,0.7,0.9,1.6,1.2c-4.8,0.2-5.7,4.6-5.4,7.2
		c1.1,0.1,2.7-2.3,2.6-0.9c-3.4,3.6-4.5,8.4-2.7,11.5c0.8-0.3,1.1-1.3,1.4-2c0.1-0.1,1.9,0.7-0.9,4c-0.2,0.9-1.2,3.5,1,4.1
		c0.8-1,0.7-1.8,0.9-2.8c0.6-0.2,1,1.8,0.8,2.4c-2.8,1.2-2.4,9.7,0.8,14.3c-1.5-3.3-1.3-7.6,0-11.1c1-2.6,3.2-8.6,3.3-8.5
		c1.2,1.5,2.8,8.1,2.8,10.8c1.7-1.5,2.1-3.2,3.5-4.3c0.7,2.4,1,4,1.5,6.1c0.7-2.1,2.5-4.4-0.1-11c0.5-0.5,1.5,2.3,1.8,2.2
		c0.2-0.1,0.6-1.5-0.3-4.1c-1.8-1.7-2.3-4.2-2-4.4c0.2-0.2,1.1,2.6,2,2.8c0.2-2.2,0.7-4.4,0.6-6c0-0.4-0.8-2.7-2.8-4.5
		c-1.2-1.1-1.6-3.3-1.5-3.7c1.1,1,0.9,1.8,1.9,2.2c0.4-0.9,0.1-4.3-1-5.7c-0.7-1.1-0.4-1,0.4-0.3c1.1,1.2,0.5,1.2,1.5,1.7
		c2-4.7,0.2-5.6,0.3-5.9c0.1-0.3,1.5,2.2,2.7,1.2c-2-1-1.9-2.6-2.1-4.3c-0.2-1.3-1-1.8-0.7-2.2c2,1.5,2.5-0.2,2.5-0.5
		c-0.4,0.2-2.1,0.4-2.3-2.3c-0.1-1.1-1.7-1.5-1.7-1.5c1-0.2,4.2-0.4,3.5-3.6c-0.4,0.8-1.3,1.9-3.3,1.5c0,0,1.3-0.3,1-1.7
		C70.6,59,68.1,55.4,64.9,55.9L64.9,55.9z M70.6,60.1c-2,0.4-3.6,2.6-5.9,1.7c-0.3-0.2-0.9-0.4-0.8-0.8c0.4,0.2,1.1,0.4,1.5,0.5
		c0,0-1.2-1-0.1-2.3c-1.4,0.9-1.9,0.6-1.9,0.2c0-0.2,1.8-1.5,3.6-0.9C68.2,58.9,69.3,59.8,70.6,60.1L70.6,60.1L70.6,60.1z
		 M67.3,60.1c0,0.5-0.6,1.1-0.6,1.1l2.2-1.1c-0.4-0.3-1.7-1-2.2-1.1C66.7,59,67.3,59.5,67.3,60.1L67.3,60.1z M54.2,48.3
		c5.6,0.4,10.3,2.9,10.3,2.9V15.3c0,0-8.2-5.7-21.5-0.6C39.1,16.2,29.6,15,29.6,15v36.7C37.9,52.3,48.8,48,54.2,48.3L54.2,48.3z
		 M50.2,29c1.1,0.3,2.7,0.1,3.2,1.5c0.5,1.5-0.4,3.4-1.7,3.5c-1,0.1-2-0.3-2.6-0.2c-0.3,0-0.5,0.1-0.5,0.4c0,0.3-0.5,0.5-0.5,0
		c-0.1-0.4-0.2-2.1-0.2-2.6c0-0.5,0.5-0.5,0.5,0c0.1,0.5,0.2,0.9,0.7,1.4c0.3,0.4,2.4,0.9,3.1,0.3c0.6-0.5,0.5-1.6-0.2-2
		c-0.6-0.4-3.2-1-3.6-1.7c-0.7-1.2,0.6-2.3,1.2-2.6c0.9-0.5,2-0.3,2.3-0.3c0.4,0,0.8,0.1,0.9-0.3c0-0.4,0.3-0.3,0.4,0
		c0.1,1.1,0.2,0.4,0.2,1.6c0,0.5-0.2,0.5-0.4,0.1c-0.1-0.3-1.7-1.6-3-0.8C48.9,28.1,49.3,28.7,50.2,29L50.2,29z M53.3,36.4
		c-0.5,0.4-0.8,0.9-1.2,1.3c-0.4-0.2-0.9-0.7-1.3-1c0.7-0.3,1-0.7,1.3-1.2C52.3,36,52.8,36.3,53.3,36.4L53.3,36.4z M46.5,39.1
		c0.6-0.4,1.5-2.2,1.7-2.6c0.1-0.4,0.4-0.3,0.3,0.2c-0.1,0.6-0.3,2-0.2,2.3c0.1,0.1,0.9,0.1,1.3,0.1c0.2,0,0.2,0.6,0,0.6
		c-0.2,0-1.2,0.1-1.2,0.1c-0.1,0.1-0.1,2.1,0.1,2.4c0.4,0.4,0.7,0.7,1.3,0.1c0.3-0.3,0.5,0,0.2,0.3c-0.2,0.2-0.9,1.1-1.1,1.5
		c-0.2,0.4-1.2,0.1-1.5-0.4C46.8,43,47,41.5,47,40C47.1,40,46,39.5,46.5,39.1L46.5,39.1z M45.7,34.8c-0.4,0.3-1.2-0.2-1.5-0.7
		c-0.5-0.8-0.3-2.6-0.3-4.1c0.1,0-0.3-0.4-0.6-0.4c-0.4-0.1-0.5-0.2,0.1-0.5c0.7-0.3,1.9-2.1,2.1-2.5c0.1-0.4,0.4,0,0.2,0.4
		c-0.5,0.9-0.3,1.9-0.2,2.2c0,0.1,1.5-0.1,1.8-0.1c0.2,0,0.2,0.6,0,0.6c-0.2,0-2.1,0.2-2.1,0.2c-0.1,0.1,0.1,3,0.3,3.2
		c0,0,0.6,0.5,0.8,0.3c0.3-0.3,0.5,0,0.2,0.3C46.5,33.9,46.1,34.4,45.7,34.8L45.7,34.8z M39.1,39.2c0.7-0.5,1-0.9,1.5-1.4
		c0.4,0.6,0.6,1.2,1,1.5c0.5-0.4,1.3-0.9,1.7-1.3c0.4,0.2,1,0.5,1,1.8c0,1.3,0.2,3.2,0.2,3.7c0,0.2,0.1,0.2,0.4,0.1
		c0.3-0.1,0.5,0.1,0.2,0.3c-0.3,0.2-1.5,1.1-1.8,1.5c-0.4-0.8-0.5-1.4-0.3-2.2c0.1-0.7,0-2.5,0-2.9c0-0.4-0.6-0.5-0.9-0.8
		c-0.4,0.3-0.4,0.3-0.7,0.6c0,0.5-0.1,4.3,0,4.8c-0.9,0-0.8,0-1.3,0c0-0.7,0-3.7-0.1-4.3C40,40,39.4,39.6,39.1,39.2L39.1,39.2z
		 M33.4,41.3c0.4-2.5,2.8-3.5,3.5-4c0.1,0.7,1,2,1.5,2.5c-0.8,0.7-2.7,2.2-3.4,2.8c0.4,0.7,1.9,1.2,2.4,0.7c0.4-0.4,0.8-0.2,0.4,0.2
		c-0.5,0.6-1.1,1.5-1.4,2.1C35.3,45.1,33.1,43.7,33.4,41.3L33.4,41.3z M32.8,29.9c0.6-0.9,2-1.7,2.9-2.1c0.3,0.4,0.7,0.9,1.1,1.5
		c-0.4,0.4-0.9,0.8-1.2,1.1c-0.2-0.2-1.3-1.9-2.2-0.7c-0.4,0.6-0.9,2.5,0.6,3.7c0.7,0.5,1.5,0.7,2.5,0.6c-0.5,0.7-0.6,0.8-0.9,1.4
		c-1.4,0.3-2-0.2-2.7-0.8C31.5,33.3,31.9,31.2,32.8,29.9L32.8,29.9z M39.3,26.6c-0.2-0.4-0.3-0.7-0.8-0.5c-1.3,0.4-2.7,0.8-3.7,0.2
		c-1.1-0.7-2-0.9-2.1-3.4c0-1.5,1.3-2.7,2.2-3.2c1-0.6,2.7-0.2,3.5,0c0.4,0.1,0.7,0.1,0.7-0.4c0-0.3,0.4-0.2,0.4,0
		c0,0.2,0,3.3,0,3.5c0,0.2-0.5,0.3-0.5,0c0-0.3-0.1-1-0.2-1.6c-0.2-0.8-2.3-2.3-3.8-0.3c0,0.1-0.7,1.1-0.6,2c0.1,0.6,0.1,1.5,0.6,2
		c1.2,1.7,2.9,1.1,3.8-0.3c0.3-0.5,0.3-1.1,0.3-1.5c0-0.2,0.5-0.2,0.5,0c0,0.3,0,2.3,0,2.5c0,0.3,0.2,0.5,0.3,0.7
		C40,26.8,39.7,27.1,39.3,26.6L39.3,26.6z M40.4,28.4c0.6-0.1,1,1.1,1.5,1.6c-0.1,0.2-0.1,3.5-0.1,3.9c0.1,0.2,0.5,0.4,0.7,0.3
		c0.3-0.3,0.4,0,0.2,0.2c-0.2,0.2-1.3,1.2-1.6,1.5c-0.4-0.3-0.5-0.7-0.6-1.3c-0.7,0.2-1.3,0.5-1.7,1.2c-0.8-0.3-1.3-1-1.4-1.7
		c0-0.8,0.5-1.2,1.1-1.7c-0.1-0.1-0.2-0.1-0.3-0.2c-0.2-0.1-0.4-1.4-0.2-1.7C38.3,29.4,39.5,28.5,40.4,28.4L40.4,28.4z M46.5,20.1
		c-0.3,0.3-1.1,0.8-1.3,1c-0.4-0.2-0.8-0.9-1.1-1.1c-0.1,0.1-0.3,0.2-0.5,0.3c0,0.4,0,4.4,0,4.9c-0.6,0-1,0.1-1.4,0
		c0-0.6,0-3.8,0-4.3c0-0.6-0.6-0.7-1.3-0.9c0.4-0.5,1.2-1.1,1.6-1.4c0.6,0.5,1,0.5,1.3,0.9c0.4-0.2,1.1-0.7,1.5-0.9
		c0.3,0.4,0.9,0.9,1.1,1.2C46.5,19.5,46.8,19.8,46.5,20.1L46.5,20.1z M52.3,24c-0.4,0.2-1.1,0.9-1.7,0.9c-1.8-0.1-4-1.3-3.7-3.7
		c0.3-2.5,2.3-3.4,3.1-3.4c1,0.1,1.2,0.9,1.7,1.4c-0.8,0.7-2.1,2-2.9,2.8c0.2,0.4,1.1,2,3,1.5C52.8,23.3,53.1,23.6,52.3,24L52.3,24z
		 M59.3,19.7c-0.2,0.2-0.9,0.8-1.7,1.5c0.1,0,0.3,0,0.4,0.1c1.3,0.8,1.8,1.9,0.5,2.9c-0.7,0.6-1.9,1.2-3.2,1.3c-0.8,0-2.3-0.7-2.6-1
		c0.7-0.6,1.4-1.3,1.9-1.8c-0.8-0.6-1.6-1.5-1-2.5c0.5-0.7,1.9-1.9,3.3-1.9C58.2,18.5,58.8,19.3,59.3,19.7L59.3,19.7z M60.1,26.5
		l0.8,0.8v0.8l-0.6,0.5h-0.5l-0.5-0.5l0-1L60.1,26.5L60.1,26.5z M61.6,22.5c-1.8,0.1-1.4-0.8-1.1-0.8C62.1,21.8,61.9,22.5,61.6,22.5
		L61.6,22.5z M61.6,23.6c-1.8-0.2-1.4-0.8-1.1-0.8C62.3,22.9,61.9,23.6,61.6,23.6L61.6,23.6z M62.4,34.5l-0.7,0.7L60.9,36
		c-0.5-0.5-0.8-0.6-0.9-1l0-3.3l-0.8-0.5c-0.5,0.4-0.8,0.2-0.4-0.1l1.5-1.4l0.4,0l0.7,1l0,3.5C61.7,34.4,61.7,34.3,62.4,34.5
		L62.4,34.5z M55.6,43.1c0-0.8,0.4-1.4,1-2c0,0-0.1,0-0.1-0.1c-0.2-0.1-0.4-1.5-0.2-1.8c0.3-0.4,1.5-1.6,2.3-1.7
		c0.6-0.1,1.4,1.2,1.9,1.7c-0.1,0.2,0.2,3.6,0.2,3.9c0.2,0.3,0.8,0.5,0.9,0.2c0.2-0.3,0.5,0,0.2,0.2c-0.2,0.2-1.1,0.9-1.3,1.2
		c-0.4-0.3-1-0.6-1.4-1.1c-0.8,0.2-1.7,0.8-2.4,1.3C55.8,44.6,55.6,43.8,55.6,43.1L55.6,43.1z M54.3,33c-0.5-1.4,0.4-2.8,0.9-3.1
		c0.4-0.3,1.2-1,1.8-1.4c0.5,0.3,0.9,0.6,1.2,0.7c-0.1,0.3-0.2,0.8-0.8,0.8c-0.9,0-1.5-0.2-2,0.3c-0.5,0.5-0.1,1.9,0.5,2.4
		c0.4,0.4,1.6,0.9,1.8,0.5c0.3-0.6,0.7-0.3,0.3,0.2c-0.3,0.4-0.8,1.1-1,1.6C56,35,54.8,34.5,54.3,33L54.3,33z M54.6,42.9L54,43.7
		l-0.6,0.6c-0.5-0.5-0.8-0.6-0.9-1l0-3.2l-1-0.5c-0.5,0.4-0.8,0.2-0.4-0.1l1.5-1.4l0.4-0.1l1,1.4l0,3.1
		C54.2,42.8,53.9,42.8,54.6,42.9L54.6,42.9z M57,41.5c-1.1,0.9,0.1,1.7,0.5,2c0.4-0.2,0.8-0.3,1.2-0.4c0-0.1-0.1-0.3-0.1-0.5
		c0-0.2,0-0.5,0.1-0.9C57.9,41.8,57.6,41.9,57,41.5L57,41.5z M58.7,41.4c0-0.5,0.1-1.1,0-1.4c0.1-0.4-1.2-1.2-1.4-1.2
		c-0.3,0-0.3,0.1-0.6,0.6c-0.1,0.3,0,1,0.1,1.1C57.5,41.2,58.1,41.4,58.7,41.4L58.7,41.4z M56.6,21.2c0.4-0.3,0.7-0.6,0.8-0.7
		c-0.5-0.5-1.4-1-1.8-1c-0.4,0-1.2,0.3-0.9,0.7c0.3,0.4,0.6,0.9,1.3,1C56.1,21.3,56.3,21.3,56.6,21.2L56.6,21.2z M56,22.4
		c-0.6,0.5-1.1,0.9-1.4,1.1c0.2,0.4,1.6,1.4,2.4,1.1c0.8-0.4,1.1-1.1,0.4-1.5C56.9,22.8,56.4,22.6,56,22.4L56,22.4z M48.7,21.5
		c0.4-0.3,1.2-1.2,1.8-1.8c-0.3-0.2-0.9-0.6-1.1-1.1C48.4,19.4,48.2,19.9,48.7,21.5L48.7,21.5z M40.4,34c0-0.2,0-0.3,0-0.5
		c0-0.2,0-0.7,0-1.3c-0.6,0.4-0.9,0.7-1.5,0.3c-1.1,0.9,0.6,1.4,0.9,1.7C40.1,34.1,40.3,34.1,40.4,34L40.4,34z M40.4,31.8
		c0-0.4,0-0.8-0.1-1.1c0.1-0.4-0.7-1.3-0.9-1.3c-0.2,0-0.8,0.5-1,0.9c-0.1,0.3-0.2,1,0.1,1.3C39.2,32.4,39.5,32.4,40.4,31.8
		L40.4,31.8z M35.7,38.7c-2,1.2-1.7,2.6-1,3.5c0.4-0.3,1.7-1.2,2.2-1.7C36.6,40.3,35.9,39.3,35.7,38.7L35.7,38.7z M23.4,43.6h4.5
		v-4.5h-4.5V43.6L23.4,43.6z M23.4,28h4.5v-4.5h-4.5V28L23.4,28z M18,37.1c-5.3,0-5.3,7.8,0,7.8C23.2,44.9,23.1,37.1,18,37.1
		L18,37.1z M18,21.5c-5.1,0-5.2,7.8,0,7.8C23.1,29.3,23.1,21.5,18,21.5L18,21.5z M63.8,67.1c-0.3-0.7-0.8-1.3-1.5-1.7
		c-3-1.4-8.9,1.7-8.8-2.9c0,0-2.1,1.5-1.1,3.2C54.5,69.4,60.5,64.8,63.8,67.1L63.8,67.1z M36.5,104.1c-1.7,1.7-2.3,1.7-2.2,2.5
		c0.4,1,1.1,1.8,1.9,2.7c1,0.8,1.4,1.6,0.6-0.8C36.4,106.9,36.5,105.7,36.5,104.1L36.5,104.1z M24.7,72L24.7,72
		c0.1,3.6-9.8,8.6-14,10.9c6.5,2.2,12.7-3.8,11.9-2.3c-0.9,1.7-8.8,8.6-12.3,12.2c2.7,0.7,5.2-1.4,7.1-3.1c2.1-1.8,5.7-6.4,5.2-4.1
		c-5.8,7.1-10.3,22-7.5,22.9c1.6-3.4,8.3-20.5,8.7-20.4c0.4,0.1-0.5,4.5-0.7,7.5c-0.3,6.5-0.4,9.5,1,15.9c0.7-1,1.4-1,2.5-0.9
		c0.1-0.6,0.1-0.5-0.6-1.4c-1.8-2.4,0.3-5.8-0.6-7.8c-0.7-1.7-1.2-0.3-1.5-2.1c0.5-0.5,1.9-0.6,2.5-0.7c0.6-6.6,2.8-10,2-5.8
		c-0.4,2.1-1.1,5.6-0.8,5.7c0.3,0.1,0.3,0.1,0.6,0.2c0.1,0.1,11.1-18.1,5-5.5c-0.8,1.7-4.1,6.1-4.1,6.1c0.9,0.9,1.7,1.9,1.8,2.5
		c0,0.2,14.8-19.4,4.7-3.6c-0.6,1-3.6,4.2-4.4,5.1c-0.1,0.1,0.3,3.7,0.3,3.7c1.5-1.1,3.7-3.2,4.7-4.6c-0.1-2,0.3-1.7,0.4-3.7
		c0.5-0.3,1.1,0.5,1.8,1.2c0.3,0.3,10.1-16.7,4-3.9c-1,2-3.2,4.5-3.3,4.7c0.4,0.4,1,1.8,1.7,3.5c0,0.1,13.1-18.8,5.1-4.5
		c-0.6,1.1-4.5,5.8-4.5,6c1,2.4,1.8,4.7,1.8,4.7c-0.2-1.8-0.6-5.5,3.2-8.5c0.5,3.3,1.4,3.4,2.5,4.4c0.5,0.4,1.4,2.3,1.5,0.7
		c0.3-4.7-1.2-4.5-2.3-6.5c-0.3-0.5-0.2-1.5,0-1.5c9.4,0.3,9.1,9.1,10.6,9.1c-0.7-2.2-0.9-4.4-0.1-6.2c-2.5-1.8-1.9-4.8-1.4-6.2
		c-2.8-2.9-1.2-9.1,0.1-10.5c-1.8-2.6,0.4-4.5-0.1-6.1c-0.8-5.7-5.9-4-7-9.5c-0.8,1-2.3,4.3-1.6,5.4c0.8,1.3,2.5,1.4,2.6,2.3
		c0,0.4,0.2,1.5-0.1,1.7c-1,0.2-1.6-0.7-2.6-1.1c-2-0.8-6.8,2.5-7.1-0.4c-0.2-1.8,0.6-0.5,0.5-2.2c-0.1-1.8-1-0.5-1-2.8
		c0-1.7,2-2.2,2.1-2.8c0.4-1.6,3.3,2.4,5.1-1.9c-1,0.1-3.1-0.6-2.9-1.6c0.5-2.7,0.6-9.2-5.5-7.8c-2.2,0.5-8.3,3.7-9.1,0.2
		c-2.2,3.9,2.1,3.2,3.5,3.1c-0.5,0.4-1.2,0.9-2.8,0.6c-3.4,2.3-15.9,10.2-19.6,12.2C17.2,76.7,24.6,72,24.7,72L24.7,72z M28.3,115.4
		c-1.2-0.5-2.5-0.8-3.5-1.6c0.8,2.6,1.3,4.8,2.8,7.6C28.3,122.9,29.8,119.2,28.3,115.4L28.3,115.4z"/>
</g>
</svg>
