<?xml version="1.0" encoding="utf-8"?>
<!-- Generator: Adobe Illustrator 23.0.0, SVG Export Plug-In . SVG Version: 6.00 Build 0)  -->
<svg version="1.1" id="RGB_Maroon" xmlns="http://www.w3.org/2000/svg" xmlns:xlink="http://www.w3.org/1999/xlink" x="0px" y="0px"
	 viewBox="0 0 781.8 181.3" style="enable-background:new 0 0 781.8 181.3;" xml:space="preserve">
<style type="text/css">
	.st0{fill:#FFFFFF;}
</style>
<g>
	<path class="st0" d="M762.8,27.7L762.8,27.7l0-0.2c-0.1-1.8-0.2-4.2-0.2-6.7v-0.5l-0.5,0.1c-0.6,0.1-3.7,0.1-6.8,0.1h-9.3
		c-1.9,0-3.6,0-5.9-0.1l-0.1,0l-0.1,0c-0.4,0.2-0.5,0.8-0.5,1c0,0.4,0.1,0.8,0.4,1l1,0.2c2.6,0.3,2.7,0.6,2.7,6v18.3
		c0,5.4-0.1,5.6-2.7,6l-1.4,0.2l-0.1,0.1c-0.3,0.3-0.3,0.8-0.3,1.1c0.1,0.4,0.2,0.7,0.5,0.8l0.1,0l0.1,0c2.4-0.1,4.1-0.2,6.3-0.2
		c2.1,0,3.8,0.1,6.7,0.2l0.1,0l0.1,0c0.3-0.2,0.5-0.6,0.5-1c0-0.4-0.1-0.8-0.4-1l-1.9-0.2c-2.6-0.2-2.7-0.6-2.7-6v-7.1
		c0-1,0-1,1.3-1h3.5c1.8,0,3.1,0,3.8,0.2c0.7,0.2,1.1,0.7,1.4,1.7l0.5,2.1l0.1,0.1c0.5,0.4,1.6,0.4,1.9-0.1l0.1-0.1v-0.1
		c0-0.5,0-1.2-0.1-2c-0.1-0.9-0.1-2-0.1-3c0-1,0.1-2.1,0.1-3.1c0-0.8,0.1-1.5,0.1-2.1v-0.1l-0.1-0.1c-0.2-0.4-0.8-0.4-1-0.4
		c-0.4,0-0.8,0.1-1,0.4l-0.5,2.2c-0.3,1.2-0.6,1.4-1,1.5c-0.5,0.2-2.1,0.3-4.2,0.3h-3.5c-1.3,0-1.3,0-1.3-1V24.6
		c0-1.6,0-1.6,1.1-1.6h3.1c2.1,0,3.8,0,4.8,0.3c2.2,0.6,2.8,2,3.3,4.5l0,0.1L761,28c0.2,0.2,0.5,0.3,0.8,0.3
		C762.1,28.2,762.6,28.1,762.8,27.7L762.8,27.7z M728.7,37.6c0-8.6-5.6-17.8-18-17.8c-10.5,0-18.5,7.9-18.5,18.3
		c0,8.7,6.3,17.6,18.5,17.6C721,55.7,728.7,47.9,728.7,37.6L728.7,37.6z M722.9,39.2c0,10.5-6.2,14.2-11.5,14.2
		c-10.5,0-13.3-10.6-13.3-16.9c0-10.6,6.3-14.3,11.7-14.3C719.5,22.1,722.9,31.3,722.9,39.2L722.9,39.2z M681.4,125.7
		c0,21.9,16.3,41.3,43.4,41.3c23.5,0,42.3-17.9,42.3-42.5c0-21.4-14.1-41.8-42.3-41.8C699.6,82.7,681.4,101.3,681.4,125.7
		L681.4,125.7z M693.5,121.8c0-26.7,16.4-35.3,29.1-35.3c23.3,0,32.2,21.7,32.2,41.8c0,24-13.9,35-28.5,35
		C702.3,163.2,693.5,139.8,693.5,121.8L693.5,121.8z M666.6,22.4c0.3-0.2,0.4-0.6,0.4-1c0-0.4-0.2-0.7-0.5-0.9l-0.1-0.1l-0.1,0
		c-3.6,0.2-5.7,0.2-9.6,0l-0.1,0l-0.1,0c-0.3,0.1-0.5,0.4-0.5,0.8c-0.1,0.4,0.1,0.8,0.3,1.1l0.1,0.1l1,0.1c1,0.1,1.6,0.4,1.8,0.5
		c-0.2,0.7-1.9,4-3,6l-0.2,0.4c-1.2,2.4-2.6,4.9-4.4,8c-1.3-2.4-2.6-5.1-3.9-7.7c-0.5-1-1-2-1.5-3c-0.4-0.7-1.5-3.3-1.5-3.7
		c0-0.1,0.2-0.3,1.8-0.5l0.8-0.1l0.1-0.1c0.3-0.3,0.4-0.8,0.3-1.2c-0.1-0.3-0.3-0.6-0.6-0.7l-0.1,0l-0.1,0c-1.2,0.1-3.1,0.1-5.4,0.1
		c-2.3,0-4.2,0-5.9-0.1l-0.1,0l-0.1,0.1c-0.2,0.1-0.4,0.4-0.5,0.7c-0.1,0.4,0,0.8,0.3,1.1l0.1,0.1l1.6,0.3c1.3,0.2,2,0.3,3.7,3.6
		l6,11.7c1.4,2.8,1.6,3.3,1.6,6.1v2.6c0,5.5-0.1,5.8-2.7,6.1l-1.7,0.2l-0.1,0.1c-0.3,0.3-0.3,0.8-0.3,1.1c0.1,0.4,0.2,0.7,0.5,0.8
		l0.1,0l0.1,0c2.7-0.1,4.5-0.2,6.6-0.2c2.1,0,3.9,0.1,6.9,0.2l0.1,0l0.1,0c0.2-0.1,0.4-0.4,0.5-0.8c0.1-0.3,0-0.8-0.3-1.1l-0.1-0.1
		l-2.1-0.2c-2.3-0.2-2.7-0.6-2.7-6.1v-2.6c0-3.8,0.1-4.2,2.3-8l3.2-5.5c0.3-0.5,0.6-1,0.8-1.5c2-3.5,3.4-6,5.6-6.4L666.6,22.4
		L666.6,22.4L666.6,22.4z M648.8,84.5c-2.1-0.5-8.5-1.8-15.5-1.8c-18.4,0-30.5,5.7-38.6,14.3c-7.6,8-11,18.5-11,28.9
		c0,10.7,3.9,20.3,11.2,27.7c9.4,9.5,22.7,13.5,37.2,13.5c6.6,0,15.3-1.5,21.8-3.2c2.3-0.6,4.5-1.1,6-1.1c0.5-0.4,0.5-1.1,0.1-1.5
		c-2.2-0.9-2.9-3.8-2.9-8.6v-6.8c0-6.2,0.1-9.6,5.2-10.2l2-0.2c0.8-0.7,0.7-2.6-0.1-3c-4,0.2-8.2,0.4-12.9,0.4
		c-7.2,0-13.9-0.1-17.4-0.4c-0.9,0.4-1,2.6,0,3l5.4,0.6c7.6,0.9,7.9,1.6,7.9,11.8v4.9c0,3.9-0.6,6.1-1.2,6.9
		c-1.3,2.1-5.8,3.7-13.4,3.7c-24.5,0-36.6-18.4-36.6-41.8c0-18.3,10.4-35.1,34-35.1c12.4,0,21.6,4.1,25,17.3
		c0.7,0.7,2.9,0.6,3.3-0.4c-1.1-7.3-1.8-13.6-1.8-17.7C654.9,85.9,651.1,85,648.8,84.5L648.8,84.5z M628.1,19.8l0-0.1l-0.1-0.1
		c-0.2-0.4-0.7-0.4-0.9-0.4c-0.1,0-0.3,0-0.5,0.1l-0.1,0l-0.1,0.1c-0.7,1.1-0.9,1.2-3.6,1.2h-21c-2.3,0-3.3-0.1-3.5-1.3l0-0.1
		l-0.1-0.1c-0.1-0.1-0.4-0.2-0.7-0.2c-0.1,0-0.5,0-0.8,0.2l-0.1,0.1l0,0.2c-0.4,2-1.1,5.2-1.9,7.5l-0.1,0.2l0.1,0.1
		c0.3,0.6,1.3,0.9,1.9,0.5l0.1-0.1l0-0.1c0.5-1.2,1-2.3,2.2-3.4c1.1-1,3.7-1.2,6-1.2h2.8c1.1,0,1.1,0,1.1,1.2v22.7
		c0,5.5-0.3,5.7-2.8,6l-1.8,0.2L604,53c-0.3,0.2-0.5,0.6-0.5,1c0,0.3,0.2,0.8,0.5,0.9l0.1,0l0.1,0c3.1-0.1,5-0.2,7-0.2
		c2,0,3.6,0,6.6,0.2l0.1,0l0.1,0c0.4-0.2,0.5-0.8,0.5-1c0-0.4-0.1-0.8-0.4-1l-1.8-0.2c-2.5-0.2-2.7-0.6-2.7-6V24.1
		c0-0.5,0-1,0.1-1.1c0.1-0.1,0.6-0.1,1-0.1h3.6c2.7,0,4.6,0.4,5.7,1.2c0.5,0.4,0.9,1.6,1.1,3.4l0,0.1l0.1,0.1
		c0.2,0.2,0.5,0.4,0.9,0.4c0.5,0,0.9-0.2,1-0.5l0.1-0.1l0-0.1C627.2,25.9,627.5,21.8,628.1,19.8L628.1,19.8z M581.8,46.8V28.7
		c0-5.5,0.2-5.9,2.7-6.1l1.4-0.1l0.1-0.1c0.3-0.2,0.4-0.5,0.4-1c0-0.2-0.1-0.8-0.5-1l-0.1,0l-0.1,0c-2.4,0.1-4.2,0.1-6.3,0.1
		c-2.2,0-3.9-0.1-6.4-0.1l-0.1,0l-0.1,0c-0.4,0.2-0.5,0.8-0.5,1c0,0.4,0.1,0.8,0.4,1l0.1,0.1l1.4,0.1c2.6,0.2,2.7,0.6,2.7,6.1v18.1
		c0,5.5-0.1,5.7-2.8,6.1l-1.4,0.2l-0.1,0.1c-0.3,0.3-0.3,0.8-0.3,1.1c0.1,0.4,0.2,0.7,0.5,0.8l0.1,0l0.1,0c2.6-0.1,4.3-0.2,6.4-0.2
		c2,0,3.7,0.1,6.3,0.2l0.1,0l0.1,0c0.4-0.2,0.5-0.8,0.5-1c0-0.4-0.1-0.8-0.4-1l-1.4-0.2C581.9,52.5,581.8,52.2,581.8,46.8
		L581.8,46.8z M573.4,162c-5.2-0.6-6.8-2.4-10.4-12.9l-16.7-49c-1.8-5.4-3.8-11-5.4-16.3c-0.2-0.9-1.1-1.1-1.8-1.1
		c-1.3,1.6-3.4,3.8-6.3,4.6c0.4,1.9-0.4,4.3-2.1,8.6l-12.4,32.9c-5.1,13.6-8.5,21.6-10.7,27.2c-1.7,4.4-4.4,5.7-7.3,6l-4,0.4
		c-0.7,0.6-0.5,2.6,0.2,3c3.3-0.1,7.7-0.4,11.7-0.4c5.7,0.1,9.5,0.1,12.7,0.4c1.1-0.5,1.1-2.4,0.2-3l-4-0.4c-2.9-0.2-3.5-1-3.5-2.4
		c0-1.3,0.9-4.6,2.7-10.1l4.3-12.8c0.9-2.6,1.6-2.9,4.6-2.9h18.4c3.7,0,4.1,0.4,5,3l5.4,16.6c1,2.9,1.6,5.1,1.6,6.5
		c0,1.2-1.7,2-4.3,2.2l-3.5,0.4c-0.9,0.6-0.7,2.6,0.2,3c3.5-0.1,8.2-0.4,14-0.4c5.5,0,9.7,0.1,14.7,0.4c0.6-0.5,0.8-2.4,0-3
		L573.4,162L573.4,162z M542,128.9h-15c-3.4,0-3.5-0.1-2.6-2.9l7.7-21.2c1.3-3.7,2.6-6.6,2.9-7.2h0.2c0.7,1.5,1.8,4.8,2.8,7.7
		l6.6,19.9C545.7,128.4,545.5,128.9,542,128.9L542,128.9z M546.9,27.4c0-2,0.7-5.2,5.7-5.2c4.5,0,5.8,2.9,6.5,5.4l0.1,0.1
		c0.2,0.2,0.4,0.3,0.8,0.3c0.4,0,0.9-0.2,1.1-0.5l0.1-0.1v-0.1c0-2.1-0.4-5-0.9-6.3l-0.1-0.3h-0.3c-0.4,0-1-0.1-1.7-0.3
		c-1.2-0.3-3.1-0.7-4.8-0.7c-6.4,0-10.7,3.7-10.7,9.1c0,4.6,3.5,7.7,5.7,9.1l4.8,3.2c3.5,2.3,4,4.6,4,6.8c0,2.7-1.8,5.4-6,5.4
		c-5.1,0-7.4-4-8.4-7.3l-0.1-0.1c-0.2-0.2-0.4-0.4-0.8-0.4c-0.3,0-0.8,0.1-1.1,0.5l-0.1,0.1l0,0.1c0.1,2.3,0.7,6.1,1.4,7.3l0.1,0.1
		l0.1,0.1c1,0.6,3.8,1.9,8.1,1.9c6.7,0,11.2-3.9,11.2-9.8c0-4.1-2.1-7.4-6.5-10.1l-4.1-2.5C549.5,32.3,546.9,30.3,546.9,27.4
		L546.9,27.4z M534.2,55.1c0.2-0.2,0.4-0.5,0.3-0.8c0-0.3-0.2-0.5-0.5-0.6l-0.1,0c-1.2-0.1-2.4-0.6-3.3-1.3
		c-3.5-2.9-6.3-7.2-10.1-13.4c-0.3-0.4-0.3-0.6-0.3-0.7c1.7-0.7,6.4-3.2,6.4-8.8c0-4.3-2.4-6.4-4.4-7.5c-2.5-1.4-5.8-1.6-8.7-1.6
		c-4.6,0-8.3,0.1-11.4,0.4l-0.1,0c-0.3,0.1-0.5,0.5-0.5,0.9c0,0.4,0.1,0.9,0.4,1.1l0.1,0.1l1.7,0.2c1.7,0.2,1.9,0.6,1.9,5.6v18.2
		c0,5.4-0.1,5.6-2.7,6l-1.4,0.2l-0.1,0.1c-0.3,0.3-0.3,0.8-0.2,1.2c0.1,0.3,0.2,0.6,0.5,0.7l0.1,0l0.1,0c2.3-0.1,4.1-0.2,6.3-0.2
		c2.1,0,3.9,0.1,6,0.2l0.1,0l0.1,0c0.4-0.2,0.5-0.7,0.5-0.9c0.1-0.4-0.1-0.8-0.3-1l-0.1-0.1l-1.2-0.2c-2.6-0.4-2.7-0.6-2.7-6v-6.4
		c0-0.7,0-0.7,2-0.7c2,0,2.6,0.5,3.3,1.5c0.8,1.1,1.7,2.5,2.5,3.9c0.9,1.4,1.8,2.8,2.4,3.8c3.5,5,6.1,6.6,10.8,6.6
		c1,0,1.8-0.1,2.4-0.3L534.2,55.1L534.2,55.1z M518.9,36.2c-1.5,1.1-3.4,1.2-5,1.2c-2.3,0-3-0.1-3.2-0.1c-0.1-0.2-0.1-0.8-0.1-1.4
		V24c0-1.1,0-1.2,2.9-1.2c5.7,0,7.7,4,7.7,7.4C521.2,33,520.5,34.9,518.9,36.2L518.9,36.2z M492.6,47.7l0-0.1l-0.1-0.1
		c-0.2-0.5-0.8-0.7-1.2-0.7c-0.2,0-0.5,0.1-0.7,0.2l-0.1,0.1c-1.5,2.9-2.8,4.4-3.4,4.7c-1.1,0.5-2.6,0.7-6.3,0.7
		c-4.2,0-5.3-0.5-5.9-1c-0.7-0.8-0.9-2.4-0.9-5v-7.2c0-1,0-1,1.3-1h2.9c1.8,0,3.1,0,3.8,0.2c0.7,0.2,1.1,0.6,1.3,1.6l0.5,2l0.1,0.2
		c0.2,0.2,0.5,0.4,1,0.4c0.5,0,0.8-0.2,1-0.5l0.1-0.1V42c0-0.5,0-1.2-0.1-1.9c-0.1-0.9-0.1-2-0.1-3c0-1.1,0.1-2.1,0.1-3.1
		c0-0.8,0.1-1.5,0.1-2v-0.1l-0.1-0.1c-0.2-0.3-0.5-0.5-1-0.5c-0.4,0-0.8,0.1-0.9,0.4l-0.5,2.3c-0.2,1.2-0.5,1.3-1,1.5
		c-0.5,0.2-2.1,0.3-4.2,0.3h-2.9c-1.3,0-1.3,0-1.3-1V24.6c0-1.6,0-1.6,1.1-1.6h3.7c2.2,0,3.8,0.1,4.8,0.3c2.3,0.6,2.8,2,3.5,4.3
		l0.1,0.3l0.1,0.1c0.2,0.2,0.5,0.3,0.8,0.3c0.4,0,0.8-0.1,1.1-0.5l0.1-0.1l-0.1-0.7c-0.3-3-0.5-5.5-0.8-6.2l-0.1-0.3l-0.3,0.1
		c-0.6,0.1-3.7,0.1-6.8,0.1h-9.5c-2,0-3.6,0-6-0.1l-0.1,0l-0.1,0c-0.4,0.2-0.5,0.8-0.5,1c0,0.4,0.1,0.8,0.4,1l1,0.2
		c2.6,0.3,2.8,0.6,2.8,6v18.3c0,5.5-0.3,5.7-2.8,6l-1.8,0.2l-0.1,0.1c-0.3,0.3-0.3,0.8-0.3,1.1c0.1,0.4,0.2,0.7,0.5,0.8l0.1,0l0.1,0
		c2.9-0.1,4.7-0.2,6.9-0.2h4.6c4.4,0,8.9,0,13.6,0.2l0.3,0l0.1-0.2C491,53.4,492.3,49.4,492.6,47.7L492.6,47.7z M457.8,22.4
		c0.3-0.3,0.3-0.8,0.3-1.1c-0.1-0.4-0.2-0.7-0.5-0.8l-0.1-0.1l-0.1,0c-1.7,0.1-3.3,0.1-4.9,0.1c-2,0-3.9-0.1-5.3-0.1l-0.1,0
		l-0.1,0.1c-0.3,0.2-0.5,0.5-0.5,0.9c0,0.4,0.1,0.8,0.3,1l0.1,0.1l1,0.1c1.8,0.2,1.9,0.6,1.9,0.6c0,0.3,0,0.8-0.4,1.8
		c-0.9,2.2-3.3,8-4.7,11.4c-0.4,0.9-0.8,2-1.4,3.2c-1,2.3-2.1,5.1-3.1,7.2c-2.4-5.5-4.6-11.1-6.9-16.7c-1.5-3.6-2.3-6.3-2.5-7
		c0.1-0.2,0.5-0.4,2-0.6l0.9-0.1l0.1-0.1c0.3-0.2,0.4-0.6,0.3-1c0-0.4-0.2-0.7-0.5-0.9l-0.1-0.1l-0.1,0c-2.3,0.1-4,0.1-6.1,0.1
		c-2.1,0-3.7,0-5.3-0.1l-0.1,0l-0.1,0.1c-0.3,0.2-0.5,0.5-0.5,0.9c0,0.4,0.1,0.8,0.4,1l0.1,0.1l1,0.1c2,0.2,2.6,1.1,3.8,3.9l8.9,22
		c1.1,2.6,1.8,4.9,2.3,6.7l0,0.2l0.2,0.1c0.3,0.1,0.6,0.2,0.9,0.2c0.3,0,0.6-0.1,0.8-0.2l0.1-0.1l0-0.1c0.9-2.7,3.3-8.7,5.3-13.2
		l2.7-6.2c2.4-5.3,4.3-9.4,5.7-11.6c0.6-1,1.3-1.5,2.3-1.6l1.7-0.1L457.8,22.4L457.8,22.4z M424.6,93c-9.3,7.2-15.4,18.8-15.4,32.3
		c0,15.7,7.6,26.8,17.3,33.5c8.9,6,19.4,8.2,30.3,8.2c7.8,0,16.6-1.8,19.2-2.8c1.3-0.5,2.8-1,4.3-1.2c1.8-2.3,5-10.4,5.8-16.7
		c-0.5-0.9-2.3-1.1-3.2-0.5c-2.8,7.2-9.7,17.4-25.5,17.4c-20,0-36.2-14.1-36.2-39.7c0-25.2,15.8-37,34.5-37c17.7,0,23.1,9.5,25,17.8
		c0.8,0.7,2.7,0.6,3.3-0.2c-1-7.4-1.6-15.1-1.7-17.9c-1.1,0.1-1.9-0.1-3.4-0.5c-5.7-1.6-15-2.9-21.6-2.9
		C444.9,82.7,433.5,86.1,424.6,93L424.6,93z M409.1,46.8V28.7c0-5.5,0.2-5.9,2.7-6.1l1.4-0.1l0.1-0.1c0.3-0.2,0.4-0.5,0.4-1
		c0-0.2-0.1-0.8-0.5-1l-0.1,0l-0.1,0c-2.4,0.1-4.2,0.1-6.3,0.1c-2.2,0-3.9-0.1-6.4-0.1l-0.1,0l-0.1,0c-0.4,0.2-0.5,0.8-0.5,1
		c0,0.4,0.1,0.8,0.4,1l0.1,0.1l1.4,0.1c2.6,0.2,2.7,0.6,2.7,6.1v18.1c0,5.5-0.1,5.7-2.8,6.1L400,53l-0.1,0.1
		c-0.3,0.3-0.3,0.8-0.3,1.1c0.1,0.4,0.2,0.7,0.5,0.8l0.1,0l0.1,0c2.6-0.1,4.3-0.2,6.4-0.2c2,0,3.8,0.1,6.3,0.2l0.1,0l0.1,0
		c0.4-0.2,0.5-0.8,0.5-1c0-0.4-0.1-0.8-0.4-1l-1.4-0.2C409.2,52.5,409.1,52.2,409.1,46.8L409.1,46.8z M383.6,146.5v-43.4
		c0-12.9,0.2-15,7.4-15.6l3-0.2c0.7-0.5,0.5-2.7-0.2-3c-6.1,0.2-10.2,0.4-15.1,0.4c-5.1,0-9.3-0.1-15.4-0.4c-0.7,0.4-1,2.6-0.2,3
		l3,0.2c7.2,0.6,7.4,2.7,7.4,15.6v43.4c0,12.9-0.2,14.6-7.4,15.5l-3,0.4c-0.7,0.7-0.5,2.7,0.2,3c6.1-0.2,10.2-0.4,15.4-0.4
		c4.9,0,9,0.1,15.1,0.4c0.7-0.4,1-2.6,0.2-3l-3-0.4C383.8,161.1,383.6,159.4,383.6,146.5L383.6,146.5z M389.9,22.4
		c0.2-0.2,0.4-0.6,0.3-1c0-0.4-0.2-0.7-0.5-0.8l-0.1-0.1l-0.1,0c-1.7,0.1-3,0.1-5.2,0.1c-1.8,0-3.5,0-6-0.1l-0.1,0l-0.1,0
		c-0.3,0.1-0.5,0.4-0.6,0.8c-0.1,0.5,0.1,0.9,0.4,1.2l0.1,0.1l1,0.1c1.7,0.2,2.6,0.5,2.9,0.8c0.6,1,1,4.7,1,10.3v10.9
		c0,0.5,0,1.1,0,1.4c-1.8-1.8-3.6-3.9-5.9-6.4l-7.1-7.9c-5-5.6-7.9-9.3-8.5-11l-0.1-0.3l-0.3,0c-0.6,0.1-1.4,0.1-2.3,0.1
		c-0.9,0-3.6,0-5.7-0.1l-0.1,0l-0.1,0c-0.3,0.1-0.5,0.4-0.5,0.8c-0.1,0.4,0.1,0.9,0.3,1.1l0.1,0.1l1,0.1c1.4,0.2,2.4,0.6,2.9,1.1
		c0.9,1,1,2,1,3.4l0,15.1c0,2.5,0,8.2-0.6,9.8c-0.1,0.3-0.5,0.6-1.9,0.8l-1.5,0.2l-0.1,0.1c-0.2,0.2-0.3,0.6-0.3,1
		c0,0.4,0.2,0.7,0.5,0.9l0.1,0.1l0.1,0c1.8-0.1,3.1-0.2,5.3-0.2c1.7,0,3.4,0,5.9,0.2l0.1,0l0.1-0.1c0.2-0.2,0.4-0.4,0.4-0.8
		c0.1-0.4,0-0.8-0.3-1.1l-0.1-0.1l-1.8-0.2c-1.2-0.1-2.1-0.4-2.3-0.8c-0.5-1-0.9-4.7-0.9-10.3V30.7c0-0.9,0-1.9,0.1-2.6
		c0.8,0.9,2.2,2.5,3.4,3.9c0.8,1,1.6,1.9,2.1,2.5l11.8,13.4c3.9,4.5,5.8,6.7,6.5,7.6l0.1,0.2h0.2c0.7,0,1.2-0.3,1.3-0.8l0-0.1l0-0.1
		c-0.1-0.6-0.1-2.6-0.1-8.8l0-12.8c0-2.6,0-8,0.7-9.6c0.1-0.1,0.7-0.6,2.6-0.9L389.9,22.4L389.9,22.4L389.9,22.4z M344.4,22.3
		c0.2-0.3,0.3-0.7,0.3-1.1c-0.1-0.3-0.2-0.6-0.5-0.7l-0.1-0.1l-0.1,0c-1.8,0.1-3.1,0.1-5.3,0.1c-1.9,0-3.8,0-5.8-0.1l-0.1,0
		l-0.1,0.1c-0.2,0.2-0.4,0.4-0.4,0.8c-0.1,0.4,0,0.7,0.3,1l0.1,0.1l1.4,0.1c1.2,0.1,2,0.4,2.2,0.9c0.6,1,0.9,4.7,0.9,10.3v5.8
		c0,6-1.7,13.1-9.8,13.1c-6.8,0-9.9-4.2-9.9-13.2v-11c0-5.4,0.2-5.8,2.7-6l1.3-0.1l0.1-0.1c0.3-0.2,0.4-0.5,0.4-0.9
		c0-0.4-0.2-0.8-0.5-1l-0.1,0l-0.1,0c-2.4,0.1-4.1,0.1-6.2,0.1c-2.1,0-3.9-0.1-6.3-0.1l-0.1,0l-0.1,0c-0.3,0.2-0.5,0.6-0.5,1
		c0,0.4,0.1,0.8,0.4,0.9l0.1,0.1l1.4,0.1c2.5,0.2,2.7,0.6,2.7,6v12c0,6.1,1.3,9.9,4.1,12.3c2.2,1.9,5.5,2.9,9.7,2.9
		c4,0,7.8-1.5,10-3.8c2.5-2.6,3.7-6.7,3.7-12.4v-5.7c0-2.6,0-8.6,0.7-10.2c0.2-0.5,1.1-0.9,2.2-1l1.4-0.1L344.4,22.3L344.4,22.3z
		 M286,87.3c0.7-0.5,0.5-2.7-0.2-3c-5.2,0.2-9.4,0.4-14.1,0.4c-5.2,0-9.4-0.2-15.4-0.4c-0.7,0.4-1,2.6-0.2,3l3.2,0.2
		c6.3,0.5,7.2,2.6,7.2,15.4v43.9c0,12.8-0.2,14-7.1,15.2l-2.1,0.4c-0.7,0.7-0.5,2.7,0.2,3c4.8-0.1,8.9-0.4,14.1-0.4
		c4.8,0,8.9,0.1,15.5,0.4c0.7-0.4,1-2.6,0.2-3l-3.5-0.4c-6.8-0.7-7.4-2.4-7.4-15.2v-17.2c0-3.7,0.2-3.9,6.1-3.9h34.8
		c5.8,0,6.1,0.2,6.1,3.9v17.2c0,12.8,0,14-7.4,15.2l-2.3,0.4c-0.7,0.7-0.5,2.7,0.2,3c5.4-0.2,9.7-0.4,14.7-0.4
		c4.8,0,8.9,0.1,14.7,0.4c0.7-0.4,1-2.6,0.2-3l-2.9-0.4c-7.1-0.9-7.3-2.4-7.3-15.2v-43.9c0-12.8,0.2-14.6,7.3-15.4l2.6-0.2
		c0.7-0.5,0.5-2.7-0.2-3c-5.5,0.2-9.6,0.4-14.4,0.4c-5,0-9.1-0.1-14.7-0.4c-0.7,0.4-1,2.6-0.2,3l2.3,0.2c7.2,0.7,7.4,2.6,7.4,15.4
		v14c0,3.8-0.2,3.9-6.1,3.9h-34.8c-5.8,0-6.1-0.1-6.1-3.9v-14c0-12.8,0.2-14.6,7.3-15.4L286,87.3L286,87.3z M281.1,47.7l0-0.1
		l-0.1-0.1c-0.2-0.5-0.8-0.7-1.2-0.7c-0.3,0-0.5,0.1-0.7,0.2l-0.1,0.1c-1.5,2.9-2.8,4.4-3.4,4.7c-1.1,0.5-2.6,0.7-6.3,0.7
		c-4.2,0-5.3-0.5-5.9-1c-0.7-0.8-0.9-2.4-0.9-5v-7.2c0-1,0-1,1.3-1h2.9c1.8,0,3.1,0,3.8,0.2c0.7,0.2,1.1,0.6,1.3,1.6l0.5,2l0.1,0.2
		c0.2,0.2,0.5,0.4,1,0.4c0.5,0,0.8-0.2,1-0.5l0.1-0.1V42c0-0.5,0-1.2-0.1-1.9c-0.1-0.9-0.1-2-0.1-3c0-1.1,0.1-2.1,0.1-3.1
		c0-0.8,0.1-1.5,0.1-2v-0.1l-0.1-0.1c-0.2-0.3-0.5-0.5-1-0.5c-0.4,0-0.8,0.1-0.9,0.4L272,34c-0.2,1.2-0.5,1.3-1,1.5
		c-0.5,0.2-2.1,0.3-4.2,0.3h-2.9c-1.3,0-1.3,0-1.3-1V24.6c0-1.6,0-1.6,1.1-1.6h3.7c2.2,0,3.8,0.1,4.8,0.3c2.3,0.6,2.8,2,3.5,4.3
		l0.1,0.3l0.1,0.1c0.2,0.2,0.5,0.3,0.8,0.3c0.4,0,0.8-0.1,1.1-0.5l0.1-0.1l-0.1-0.8c-0.3-3-0.5-5.5-0.8-6.2l-0.1-0.3l-0.3,0.1
		c-0.6,0.1-3.7,0.1-6.8,0.1h-9.5c-2,0-3.6,0-6-0.1l-0.1,0l-0.1,0c-0.4,0.2-0.5,0.8-0.5,1c0,0.4,0.1,0.8,0.4,1l1,0.2
		c2.6,0.3,2.8,0.6,2.8,6v18.3c0,5.5-0.3,5.7-2.8,6l-1.8,0.2l-0.1,0.1c-0.3,0.3-0.3,0.8-0.3,1.1c0.1,0.4,0.2,0.7,0.5,0.8l0.1,0l0.1,0
		c2.9-0.1,4.7-0.2,6.9-0.2h4.6c4.4,0,8.9,0,13.6,0.2l0.3,0l0.1-0.2C279.4,53.4,280.7,49.4,281.1,47.7L281.1,47.7z M238.7,46.9V28.6
		c0-5.4,0.2-5.7,2.7-6l1.1-0.1l0.2-0.1c0.3-0.2,0.4-0.5,0.4-1c0-0.2-0.1-0.8-0.5-1l-0.1,0l-0.1,0c-2.5,0.1-4.1,0.1-6,0.1
		c-2.2,0-4-0.1-6.1-0.1l-0.1,0l-0.1,0c-0.4,0.2-0.5,0.8-0.5,1c0,0.4,0.1,0.8,0.4,1l1.1,0.2c2.6,0.3,2.7,0.6,2.7,6v5.8
		c0,1.2,0,1.2-2.1,1.2H217c-2.1,0-2.1,0-2.1-1.2v-5.8c0-5.4,0.2-5.7,2.7-6l1-0.1l0.2-0.1c0.3-0.2,0.4-0.5,0.4-1c0-0.2-0.1-0.8-0.5-1
		l-0.1,0l-0.1,0c-2.3,0.1-4,0.1-5.9,0.1c-1.3,0-2.5,0-3.7-0.1c-0.8,0-1.7-0.1-2.6-0.1l-0.1,0l-0.1,0c-0.4,0.2-0.5,0.8-0.5,1
		c0,0.4,0.1,0.8,0.4,1l0.1,0.1l1.4,0.1c2.2,0.2,2.6,0.6,2.6,6v18.3c0,5.3-0.1,5.5-2.6,6l-1,0.2l-0.1,0.1c-0.3,0.3-0.3,0.8-0.3,1.1
		c0.1,0.4,0.2,0.7,0.5,0.8l0.1,0l0.1,0c0.7,0,1.4,0,2-0.1c1.2,0,2.4-0.1,3.8-0.1c1.9,0,3.5,0,6.4,0.2l0.1,0l0.1,0
		c0.3-0.2,0.5-0.6,0.5-1c0-0.4-0.1-0.8-0.4-1l-1.6-0.2c-2.4-0.3-2.7-0.5-2.7-6v-7.2c0-1.2,0-1.2,2.1-1.2h14.5c2.1,0,2.1,0,2.1,1.2
		v7.2c0,5.4-0.1,5.5-2.8,6l-1.1,0.2l-0.1,0.1c-0.3,0.3-0.3,0.8-0.3,1.1c0.1,0.4,0.2,0.7,0.5,0.8l0.1,0l0.1,0
		c2.4-0.1,4.2-0.2,6.1-0.2c2,0,3.8,0.1,6.1,0.2l0.1,0l0.1,0c0.4-0.2,0.5-0.8,0.5-1c0-0.4-0.1-0.8-0.4-1l-1.4-0.2
		C238.8,52.5,238.7,52.2,238.7,46.9L238.7,46.9z M196.9,19.8l0-0.1l-0.1-0.1c-0.2-0.4-0.8-0.4-0.9-0.4c-0.1,0-0.3,0-0.5,0.1l-0.1,0
		l-0.1,0.1c-0.7,1.1-0.9,1.2-3.6,1.2h-21c-2.3,0-3.3-0.1-3.5-1.3l0-0.1l-0.1-0.1c-0.1-0.1-0.4-0.2-0.7-0.2c-0.1,0-0.5,0-0.8,0.2
		l-0.1,0.1l0,0.2c-0.4,2-1.1,5.2-1.9,7.5l-0.1,0.2l0.1,0.1c0.3,0.6,1.3,0.9,1.9,0.5l0.1-0.1l0-0.1c0.5-1.2,1-2.3,2.2-3.4
		c1.1-1,3.7-1.2,6-1.2h2.8c1.1,0,1.1,0,1.1,1.2v22.7c0,5.5-0.3,5.7-2.8,6L173,53l-0.2,0.1c-0.3,0.2-0.5,0.6-0.5,1
		c0,0.3,0.1,0.8,0.5,0.9l0.1,0l0.1,0c3.1-0.1,5-0.2,7-0.2c2,0,3.6,0,6.6,0.2l0.1,0l0.1,0c0.3-0.2,0.5-0.6,0.5-1c0-0.4-0.1-0.8-0.4-1
		l-1.8-0.2c-2.5-0.2-2.7-0.6-2.7-6V24.1c0-0.5,0-1,0.1-1.1c0.1-0.1,0.6-0.1,1-0.1h3.6c2.7,0,4.6,0.4,5.7,1.2
		c0.5,0.4,0.9,1.6,1.1,3.4l0,0.1l0.1,0.1c0.2,0.2,0.5,0.4,0.9,0.4c0.5,0,0.9-0.2,1-0.5l0-0.1l0-0.1C196,25.9,196.4,21.8,196.9,19.8
		L196.9,19.8z M162.3,125.3c0,15.7,7.6,26.8,17.3,33.5c8.9,6,19.4,8.2,30.3,8.2c7.8,0,16.6-1.8,19.3-2.8c1.3-0.5,2.8-1,4.3-1.2
		c1.8-2.3,5-10.4,5.8-16.7c-0.5-0.9-2.3-1.1-3.2-0.5c-2.8,7.2-9.7,17.4-25.5,17.4c-20,0-36.2-14.1-36.2-39.7c0-25.2,15.8-37,34.5-37
		c17.7,0,23.2,9.5,25,17.8c0.9,0.7,2.7,0.6,3.3-0.2c-1-7.4-1.6-15.1-1.7-17.9c-1.1,0.1-1.9-0.1-3.4-0.5c-5.7-1.6-15-2.9-21.6-2.9
		c-12.7,0-24,3.4-32.9,10.4C168.4,100.2,162.3,111.8,162.3,125.3L162.3,125.3z M130.6,104.8l0-84.9c-68.2-6.6-119.6,0-119.6,0
		s0,84.9,0,84.9c5.4,57.5,59.3,64.3,59.8,64.2C80.5,167.2,125.6,158.2,130.6,104.8L130.6,104.8z M127.7,104.3
		c-4.8,51.3-47.7,60-56.8,61.6c-0.5,0.1-51.7-6.4-56.8-61.6c0,0,0-81.5,0-81.5s48.9-6.3,113.6,0L127.7,104.3L127.7,104.3z
		 M110.3,134.5c1.9-2.7,3-5.7,3.7-8.9c-1.1,1.5-2.7,2.7-4.4,3.4C108.4,132.6,108.9,136.4,110.3,134.5L110.3,134.5z M112.1,126.3
		c1.4-1.2,2.2-3.1,3.9-3.7c-1.3-1.2-2.6,1.2-3.3,0.4c1.2-1.9,2-3.4,2.1-5.8c0.1-1.3,1.6-2.5,1.9-3.2c-1.5,0.2-5.3,2.5-6.1,3.8
		c-2.6,3.4-2.5,6.7-13.4,11.5c-0.5,0,2-1.9,2.7-4c0.3-1,1.8-5.7,0.8-7.9c-2.3,2.3-1.8,3-2.4,4.7c-1.6,4.5-2.5,4.9-6.6,7.6
		c-0.5,0.4-3.7,5.2-7.7,5.4c0.4-0.1,0.2-1.1,1.5-2c4.5-3,2.8-9.4,8.7-10.4c-2.9-1-5,1.8-5.5,1.5c2.4-3.3,0.3-6.1,0.6-8.8
		c-0.8,0.4-1.6,1.4-1.7,2.2c-0.4,4.8-2.7,5.6-2.9,7.7c0.5,3.4-2.3,6.1-4.3,8.5c-0.4-2,0.1-3.8,2.6-5.4c1.4-0.9-0.1-3.6-0.1-3.6
		c-0.6,3-2.2,3.9-3.3,4.1c-0.9,0.1,3.2-4.2,2.7-8.1c-0.2-1.8-0.7-1-1-2.9c-3.6,3.9-1,6.4-4.6,10.9c-1.7,2.2-2.4,6-2.6,6
		c0-5.6,0.2-4,2.7-8.6c2.1-3.8-0.1-7.3-0.4-9.6c-4.5,3.1-4.1,9.1-4.3,7.8c-0.1-1.3-0.7-3.5-0.1-5.6c1-3.4-1.1-8.5-1.1-8.5
		c-6.3,9.9-1,21.5-1.4,21.4c-2.7-4.3-4.8-4.5-5.3-7.8c-0.3-1.8-3.6-11.6-9.6-11.8c3,2.6,2.3,3,2.5,7.2c-1.9,10.7,13,11.8,12,17.3
		c-2-3.3-5.2-4.7-9.9-7.2c-2.1-1.7-4.4-2.4-4.6-5c0.2-1.9,0.4-1.5,0-3.9c-0.2-1.7-1.9-0.7-3.2-4.3c-2.7,2.4-1.7,5.2-1.5,6.8
		c0.1,0.4,0.4,2.1,0,3.1c-1-0.7-1.6-2-2.7-3.4c-1.9-2.5-1.9-5.5-2.9-7.6c-0.4-1-1.1-2.3-1.5-2.3l-0.1,0c-0.5,3.9-0.2,7.3,1.5,10.2
		c0,0-0.5,0.8-0.9,1c-1.7-0.4-4-1.8-5-4.6c-2.1,1.7-0.6,4-0.7,4c-4.7-2.4,0.1-11.7-6.6-11.4c1.6,1.8,0.6,4.1,0.5,6.2
		c0,3.5,4.4,6.2,4.4,6.2c-4.9-1.7-5.9,0.6-5.9,0.6c0,0,7.3,3.2,18.7,4.3c1.5,0.2,3.6,1.9,3.2,1.9c-1.5-0.1-4.4-2-8.6,1.7
		c2.5,0.1,4.2,4.1,8.2,1.8c10.4-2.9,14.2,2.2,15.9,3.5c-0.4,0.6-8-4.8-14-1.2c-3.2,1.9-8.4,0.2-12.4-2.8c1.6,4.2,8.6,8.9,10.9,8.9
		c2.8,0,6.4-3.7,10.5-3.5c6.5,0.3,7.5,6.2,6.7,5.7c0,0-5.1-8.5-11.8,0.6c3.1-1.4,7.2-1.1,10.8,0.7c0.5,0.2-0.9,1.8-1.9,2.9
		c-0.6,0.7-3.4,4.8-6.4,0.8c-0.4-0.6-1.9-4.3-11.2-3.5c3.5,1.6,7.4,5.8,9.3,7.7c4.9,4.8,12.3-5.9,12.6-4.7c0,2.4,1.2,3.6,1.9,4.9
		c1.6,3.3-2.1,2.7-4.1,1.9c0,0,3.9,6,7.1,2.7c3.6-3.7-4.7-6.5-2.1-9.5c1.5-1.7,6.7,3.7,9,3.7c6.3,0.7,6-5.3,9.4-5.1
		c-3.1-3.2-6.5-1.5-7.2-0.6c-2.1,2.5-4.6,0.8-6.3-0.5c-0.9-1.2-2.5-1.4-3.9-1c-0.7,0.1,1.3-2.3,3.9-1.8c5.8,1.1,11.7-1,13.1-1.8
		c2.3-1.3,3.7-3.6,6.3-6.1c-0.8,0.2-5.7,2.9-7.2,3.6c-4.7,2.4-7.6-0.7-8.1-0.7c-0.9,0-0.7-0.7,0.7-1.1c4.8-1.1,8.1-5.3,12.7-7
		C101.4,128.9,107.9,130.5,112.1,126.3L112.1,126.3z M102.6,119.9c-0.1,1-0.1,1.8-0.5,2.9c0,0.1,1.1,0.6,1.6,1c0.7-0.7,1.4-1,2.2-2
		c-0.2-0.1-3.2-2.8-3.3-2.7C102.7,119.5,102.7,119.5,102.6,119.9L102.6,119.9z M103.1,124.5c0,0-1.2-0.9-1.2-0.7
		c-0.2,0.5-0.4,1.1-0.8,1.8C100.7,126.2,101.6,125.7,103.1,124.5L103.1,124.5z M117,112.4c-0.3-11-7-23.2-5.2-20.9
		c4.6,5.7,6.1,18,9.2,28.6c0,0,2,1,1.6-12.4c-0.1-2.7-1.2-6.3-2.5-8.9c-2.7-5-8.1-13.4-7.9-13.5c1.3-1.1,4.5,6.2,7.2,9.1
		c1.8,1.8,6.8,3.7,7.1,3.4c-4-7.7-13.7-15-12.6-15.9c7.1,6.7,9.4,7,9.7,6.6l-6.4-6.2c-1.8-2.4-4.2-4.3-3.9-4.2
		c2.9,0.6-1.5-2.4-4.9-3.3c-0.6-0.2-1.6-0.2-1.6-0.5c-0.1-0.5,0.8-0.3,1.5-0.5c0.5-0.1,0.9-0.5,0.9-1.2c-1.3,0.3-2.6,0-3.7-0.5
		c-2.3-1.1-6.3-2.3-8.2-1.5c-1.1,0.4-1.3,0.4-2.5,1.3c-0.5-0.2-1.9-1.1-4,1.3c-0.6,0.8-1.4,1.6-1.4,2.3c-0.1,1.6,0,0.1,0.4,1.6
		c0.2,0.7-0.6,1.8-3.6,2.8c-1.2,0.4-0.9,1.5-0.9,1.5c0.6-0.3,1.5-0.9,2.9-0.3c2.7,1.3,3.3-0.7,5-2.2c0,0-0.5,1.8,0,1.9
		c2.1,0.4,1.4,2,1.1,2.3c-2.7,2.4-1.5,3.3-2.5,4.7c-0.9,1.4-2.3,1.9-4.3,1.8c-2.8-0.1,3.7-4.4-2.6-6.2c1,1.6,1.4,3-0.8,4.2
		c-1.4,0.8-0.7,4.9-4.2,3c0,0-0.3,3-0.7,3.2c4.8,4.2,2.1,6.5,2.4,12.6c1.5,3.8-0.1,5.7-0.5,5.9c0.2,2.6,0.5,4,2.1,6.2
		c1.2,1.5-0.1,3.9,1.1,5.5c1.1-3.9,2.3-2.3,2.6-7.7c0.4-0.9,2.3-2.5,3.3-2.6c0,3.3,1.2,6.3,0.9,7.7c0,0,2.8-0.5,3.6-0.2
		c0.7,0.2,1.2,1.1,1.2,1.7c-0.9,0.6-0.9,0.4-2.4,1.4c-2.5,1.8-3.6,5.5-3.6,5.5c0,0,5.9-4.7,6.3-5.5c0.3-0.7,0.7-1.7,1-2.8
		c0-0.1-3-1.9-3.9-3.5c-2.6-5.1,4.1,3,4.2,2.3c0.4-1.8,1.6-3.4,1.6-3.4c-0.4-0.5-1.5-0.8-3.1-3.6c-3.6-6.4,4.2,2.7,4.2,2.7
		c2.1-1.2,2.1,0.4,2.4,2.1c0,0.2,3.5,2.8,3.7,2.9c1-0.9,1.7-2.2,2.1-3c0.1-0.1-6.4-5.8-7.5-7.7c-8.8-15.2,7.2,6.7,7.9,6.1
		c0.4-1.2,0.6-2.8,0.5-5c0-0.1-3-2.1-4.9-5.3c-7.4-12.3,4.9,3.7,4.9,3.5c-0.1-2.6-2.3-14-0.8-10.6c0.8,1.8,3.2,9,2.7,16.4
		C112.3,114.1,115.7,112.7,117,112.4L117,112.4z M121.8,39.4c0.1,0.4,0.1,0.8,0.1,1C121.9,40.1,121.9,39.8,121.8,39.4
		c0,0-0.2-4.1-4.6-4.1c-1.4,0-3.2,1.7-7.6-0.2v7c1.8,0.5,6.7-2.3,8.7-3.2C119.7,38.3,121.7,38.7,121.8,39.4L121.8,39.4z M109.5,49.4
		v7c0,0,3.9,0,8.2-2.8c1.3-0.8,3.2-0.5,4.2,0.3h0c0,0-0.6-4.6-4.4-4C110.3,50.9,109.5,49.4,109.5,49.4L109.5,49.4z M83,60.5
		c3.7,0,18.2,4,25.2,3.5V27.4c0,0-10.3,1.5-19.2-1.8c-7.3-2.7-17.3,2-17.3,2c0,1.2,0,35.8,0,35.8S75.4,60.5,83,60.5L83,60.5z
		 M75.1,48.4c0.3,0,1.4,0.1,1.8,0.1c0,0.8,0,6.2,0,6.8c0,0.6,0.5,0.7,1,0.5c0.2-0.1,0.5,0.1,0.1,0.3c-0.5,0.4-1.2,1.3-1.5,1.7
		c-0.6-0.4-1.3-0.9-1.2-1.4C75.4,55.5,75.1,49.2,75.1,48.4L75.1,48.4z M77,40.5c1.1-0.6,3.4-0.9,4.3-0.7c0.4,0.1,0.8,0,0.8-0.2
		c0-0.3,0.4-0.2,0.4,0c0,0.2,0,2.8,0,3.1c0,0.3-0.4,0.2-0.4,0c0-0.4,0-0.5-0.3-1c-1-1.4-3.6-1.6-4.9,0.2c-0.4,0.6-0.6,1.6-0.1,1.8
		c0.5,0.2,2.4,0,3-0.1c0.6-0.1,2.1-0.4,2.3-0.5c0.2-0.1,0.4-0.2,0.4,0c0,0.3,0,1.3,0,1.6c0,0.3-0.2,0.2-0.4,0
		c-0.2-0.1-1.6-0.2-2.2-0.3c-1-0.1-2.6-0.4-3.1-0.3c-0.5,0.2-0.1,0.9,0.3,1.5c1.3,1.7,3.7,1.8,4.7,0.4c0.4-0.5,0.4-0.6,0.4-1
		c0-0.2,0.4-0.3,0.4,0c0,0.2,0,2.4,0,2.6c0,0.2-0.4,0.3-0.4,0c0-0.5-0.3-0.4-0.8-0.3c-1.4,0.4-3.3,0.5-4.4-0.1
		c-1.2-0.7-2.2-0.9-2.2-3.5C74.6,42.3,76.1,41.1,77,40.5L77,40.5z M84.7,29.4c-0.6,0.2-1.1,0.8-1.2,1.5c-0.1,0.7-2.3,6.8-2.5,7.3
		c-0.5-1.9-2.6-6.5-3.3-7.5c-0.6-0.9-1.2-0.7-1.7-0.7c-0.5,0-0.3-0.5,0.1-0.5c0.6,0.1,4,0.4,4.9,0.5c0.3,0.1,0.4,0.4-0.1,0.5
		c-0.2,0.1-0.8,0.3-0.8,0.6c0,0.4,1.2,3.1,1.6,3.6c0.3-0.7,1.4-3.6,1.2-4.3c-0.3-0.6-0.3-0.7-0.8-0.8c-0.5-0.1-0.5-0.3,0.1-0.4
		c0.6-0.1,2.2-0.2,2.7-0.2C85.3,29,85.3,29.2,84.7,29.4L84.7,29.4z M88.3,29.5L87.7,30h-0.5l-0.5-0.5l0-1l0.8-0.7l0.9,0.8V29.5
		L88.3,29.5z M89.8,36.6l-1.1,1.5h-1.1c-0.5-0.5-0.9-0.9-1-1.3l-0.1-3.5l-1.3-0.8c-0.2,0.3-0.7,0.3-0.5,0.1l1.8-1.6l0.4,0l1.2,1.2
		l0,3.6C88.6,36.3,89,36.5,89.8,36.6L89.8,36.6z M96.1,32.5c-0.3,0-3,0.3-3,0.3c-0.1,0.1,0.1,3.4,0.2,3.7c0.1,0.3,0.3,0.7,0.7,0.4
		c0.3-0.3,0.6,0.2,0.3,0.5c-0.2,0.2-0.8,1.3-1.1,1.5c-0.4,0.3-1.1-0.6-1.3-1.2c-0.3-0.9-0.5-3.2-0.5-4.8c0.1,0-1.3-0.5-0.7-0.8
		c1.2-0.5,2.4-2.1,2.5-2.5c0.1-0.4,0.5-0.2,0.3,0.2c-0.4,0.8-0.4,1.4-0.2,1.9c0.1,0.1,2.4,0.1,2.7,0.1
		C96.3,31.9,96.3,32.5,96.1,32.5L96.1,32.5z M93,44.1c-0.2,1.2,0.8,2.1,1.6,2.6c0.6,0.3,1.7,0.1,2,0.1c0.3,0,0.2-0.1,0.4-0.3
		c0.2-0.2,0.4,0,0.3,0.2c-0.2,0.2-1.8,1.7-2.2,2c-0.4,0.1-1.3,0.1-1.8-0.6c-0.9-1.2-1.6-1.6-1.3-3.7c0.2-1.5,2.6-2.7,3.2-3
		c0.2,0.2,1.3,1.4,1.8,1.8c-0.2,0.2-0.8,0.5-1.4,0.5c-0.6,0-1-0.5-1.4-0.9C93.8,42.9,93.2,43.2,93,44.1L93,44.1z M102.7,38.4
		l-1.5,1.6c-0.4-0.3-0.7-0.6-0.8-1.2c-1.1,0.2-1.9,0.9-2.4,1.3c-0.5-0.4-1.2-1.5-1.2-2.3c0-0.8,0.6-1.9,1-2.3c0,0,0.1,0,0.1,0.1
		c-0.2-0.1-0.5-0.3-0.6-0.4c-0.2-0.1-0.2-0.5,0-0.8c0.3-0.4,1.2-1.5,2.1-1.7c0.5-0.1,1.3,0.1,2.4,1c-0.1,0.2-0.1,3.4-0.1,3.7
		C102,37.8,102.7,38.4,102.7,38.4L102.7,38.4z M105.7,45.6c-0.5,0-1-0.1-1.2-0.2c-0.4-0.1-0.2-0.6,0.1-0.6c0.3,0,0.9,0.1,1.1,0.2
		C105.9,45.1,106,45.6,105.7,45.6L105.7,45.6z M105.6,46.7c-0.5,0-1-0.1-1.2-0.2c-0.4-0.1-0.2-0.6,0.1-0.6c0.3,0,0.9,0.1,1.1,0.2
		C105.8,46.2,105.9,46.8,105.6,46.7L105.6,46.7z M98,53.5c0.5-0.3,1.6-1.3,2-1.6c0.7,0.5,1.1,1,1.4,1.4c0.4-0.2,1.1-0.7,1.5-1
		c0.6,0.4,1.2,1,1.5,1.2c0.3-0.3,0.7-0.1,0.3,0.3c-0.3,0.3-1.1,1-1.4,1.2c-0.4-0.2-1.2-1.1-1.4-1.2c-0.1,0.1-0.4,0.2-0.6,0.3
		c0,0.5,0,4.2,0,4.7c-0.6,0-1.1,0.1-1.6,0c0-0.6,0-3.9,0-4.4C99.8,53.7,98.7,53.5,98,53.5L98,53.5z M97.8,46.2
		c0.1-1.9,1.3-3.5,3.3-4.2c1.6,0.5,2.3,2.2,2.3,3.2c0,0.9-0.5,2.1-0.9,2.8c-0.6,0.4-1.3,1-1.9,1.6C98.7,49.6,97.7,47.3,97.8,46.2
		L97.8,46.2z M90.2,52.4c0.6-0.6,1.2-1.1,1.6-1.4c0.6,0.5,0.8,0.7,1.2,1.3c0,0.8-0.2,2.6-0.1,3.2c0,0.6,2.4,1,2.5,0.1
		c0.1-0.9,0-2,0-2.5c0-0.4-1-0.6-1.5-0.5c0.6-0.7,1.2-1.2,1.6-1.5c0.6,0.4,1.1,1,1.5,1.6c0,0.9-0.2,3,0,3.5c0.2,0.6,0.1,0.6,0.5,0.9
		c-0.4,0.4-0.8,0.6-1.1,0.9c-0.4-0.1-1.2-0.8-1.2-1.4c-0.5,0.4-2.1,1-2.7,1.2c-0.6-0.6-1-0.8-1.1-1.5c0-0.7,0.2-2.7-0.1-3.2
		C91.1,52.5,90.7,52.4,90.2,52.4L90.2,52.4z M88.9,47c-0.6-0.3-1.4-1.1-1.8-1.7c-0.8,1-1,1.8-2.4,2.2c0.8-0.7,1.6-2.2,1.5-3.6
		c-0.1-1.3-0.8-1.9-1.4-2.2c-0.5,0.3-1,0.6-1.3,0.7c-0.3,0.1-0.4-0.3-0.2-0.4c0.7-0.3,2.2-1.5,2.4-1.7c0.6,0.1,1.4,0.7,1.5,1.2
		c0.5-0.3,1.3-1.2,1.6-1.4c0.3,0.5,1.2,1.1,2.1,1.5c-0.9,1.5-2.8,0.6-3.1,0.2c-0.3,0.5-0.4,0.8-0.1,1.5c0.4,0.9,2,1.7,2.8,2
		C90.5,45.5,89.3,46.8,88.9,47L88.9,47z M86.6,51.6c0.1,0-1.3-0.5-0.7-0.8c1-0.5,2-1.5,2.2-2c0.2-0.4,0.5-0.2,0.3,0.2
		c-0.2,0.4-0.3,1.4-0.2,1.7c0,0.1,0.8,0.2,1.2,0.2c0.2,0,0.2,0.6,0,0.6c-0.3,0-1.2,0-1.2,0c-0.1,0.1,0,3.4,0,3.7
		c0.1,0.3,0.9,0.5,1.2,0.2c0.3-0.3,0.6,0,0.2,0.3c-0.2,0.2-0.8,1.1-1.3,1.3c-0.5,0.2-1.2-0.1-1.6-0.6C86.3,55.6,86.6,53.1,86.6,51.6
		L86.6,51.6z M83.6,57c-0.5-0.4-0.9-0.5-1.1-1.1c-1.3,0.5-1.7,1.2-2.5,1.8c-0.4-0.4-0.8-1.2-0.8-1.9c0-0.8,0.7-1.8,1.1-2.2
		c-0.1,0-0.1-0.1-0.1-0.1c-0.2-0.1-0.4-1.3-0.2-1.5c0.3-0.4,1.4-2,2.3-2c0.6-0.1,1.1,0.7,1.6,1.3c-0.1,0.2-0.1,2.9-0.1,3.2
		c0.6,0.6,0.8,0.8,1.1,0.5c0.3-0.2,0.5,0,0.2,0.2C84.9,55.3,83.9,56.7,83.6,57L83.6,57z M82.4,53.7c0-0.6,0-1.1-0.1-1.4
		c0-0.4-0.9-1-1.1-1.1c-0.3,0-0.5,0.1-0.8,0.6c-0.2,0.3-0.1,1.3,0,1.4C81.3,53.8,81.8,53.8,82.4,53.7L82.4,53.7z M80.9,54
		c-0.7,1.3-0.1,1.6,0.3,1.9c0.5-0.2,0.9-0.5,1.2-0.7c0-0.2,0-0.7,0-1.2C81.7,54.1,81.4,54.3,80.9,54L80.9,54z M99.2,46.3
		c0.3,0.8,1.7,1.9,2.1,2.1c0.6-0.7,0.9-1.9,0.7-3c-0.1-0.8-1.2-1.7-2.1-2C98.8,44,98.8,45.3,99.2,46.3L99.2,46.3z M99.2,38.8
		c0.5-0.2,0.8-0.3,1.2-0.3c0-0.2,0-0.4,0-0.6c0-0.2,0-0.7,0-1.2c-0.6-0.2-1.4-0.5-2.1-0.9c0.1,0.1,0.2,0.1,0.3,0.2
		C97.7,37.2,98.8,38.5,99.2,38.8L99.2,38.8z M97.7,34.9c0.5,0.4,1.9,1.1,2.6,1.3c0-0.6,0-1.2-0.1-1.5c0-0.4-1.4-1.2-1.6-1.2
		c-0.3,0-0.6,0.4-1,0.9C97.5,34.8,97.5,34.8,97.7,34.9L97.7,34.9z M70.4,68c-1.1,0.1-2.5,0.8-2.9,2c-0.7,0.7-0.7-1.2-2.1-0.4
		c-0.6,0.8,1,2.6,0.6,2.7c-1.6,0.5-1.4-2.3-2.2-2.4c-1.3,0.5-4.5,3.4-1.3,5.7c-0.1-1.6,2.9-3.3,3.9,0.2c3-0.2,4,1.6,4.3,2.6
		c4.4,0.8,3.1,3.7,3,3.7c-0.4-0.6-2.3-3.5-5.4-1.5c-0.7,0.5-2,0.9-2.6,0.3c0.1,1,1.3,1.9,2.1,1.6c2.7-0.8,3.4,1.8,1.3,2.5
		c0.5,0.7,1.3,0.7,2.1,0.2c1.2-0.7,1.3-1.4,1.7-1.8c0.7,3.6-3.8,3.9-5.2,4.1c0.2,0.8,0.7,0.9,1.6,1.2c-4.8,0.2-5.7,4.6-5.4,7.2
		c1.1,0.1,2.7-2.3,2.6-0.9c-3.4,3.6-4.5,8.4-2.7,11.5c0.8-0.3,1.1-1.3,1.4-2c0.1-0.1,1.9,0.7-0.9,4c-0.2,0.9-1.2,3.5,1,4.1
		c0.8-1,0.7-1.8,0.9-2.8c0.6-0.2,1,1.8,0.8,2.4c-2.8,1.2-2.4,9.7,0.8,14.3c-1.5-3.3-1.3-7.6,0-11.1c1-2.6,3.2-8.6,3.3-8.5
		c1.2,1.5,2.8,8.1,2.8,10.8c1.7-1.5,2.1-3.2,3.5-4.3c0.7,2.4,1,4,1.5,6.1c0.7-2.1,2.5-4.4-0.1-11c0.5-0.5,1.5,2.3,1.8,2.2
		c0.2-0.1,0.6-1.5-0.3-4.1c-1.8-1.7-2.3-4.2-2-4.4c0.2-0.2,1.1,2.6,2,2.8c0.2-2.2,0.7-4.4,0.6-6c0-0.4-0.8-2.7-2.8-4.5
		c-1.2-1.1-1.6-3.3-1.5-3.7c1.1,1,0.9,1.8,1.9,2.2c0.4-0.9,0.1-4.3-1-5.7c-0.7-1.1-0.4-1,0.4-0.3c1.1,1.2,0.5,1.2,1.5,1.7
		c2-4.7,0.2-5.6,0.3-5.9c0.1-0.3,1.5,2.2,2.7,1.2c-2-1-1.9-2.6-2.1-4.3c-0.2-1.3-1-1.8-0.7-2.2c2,1.5,2.5-0.2,2.5-0.5
		c-0.4,0.2-2.1,0.4-2.3-2.3c-0.1-1.1-1.7-1.5-1.7-1.5c1-0.2,4.2-0.4,3.5-3.6c-0.4,0.8-1.3,1.9-3.3,1.5c0,0,1.3-0.3,1-1.7
		C76.1,71.1,73.6,67.6,70.4,68L70.4,68z M76.1,72.2c-2,0.4-3.6,2.6-5.9,1.7c-0.3-0.2-0.9-0.4-0.8-0.8c0.4,0.2,1.1,0.4,1.5,0.5
		c0,0-1.2-1-0.1-2.3c-1.4,0.9-1.9,0.6-1.9,0.2c0-0.2,1.8-1.5,3.6-0.9C73.6,71,74.7,72,76.1,72.2L76.1,72.2L76.1,72.2z M72.8,72.3
		c0,0.5-0.6,1.1-0.6,1.1l2.2-1.1c-0.4-0.3-1.7-1-2.2-1.1C72.2,71.2,72.8,71.6,72.8,72.3L72.8,72.3z M59.7,60.5
		c5.6,0.4,10.3,2.9,10.3,2.9V27.5c0,0-8.2-5.7-21.5-0.6c-3.9,1.5-13.4,0.2-13.4,0.2v36.7C43.4,64.4,54.3,60.1,59.7,60.5L59.7,60.5z
		 M55.7,41.1c1.1,0.3,2.7,0.1,3.2,1.5c0.5,1.5-0.4,3.4-1.7,3.5c-1,0.1-2-0.3-2.6-0.2c-0.3,0-0.5,0.1-0.5,0.4c0,0.3-0.5,0.5-0.5,0
		c-0.1-0.4-0.2-2.1-0.2-2.6c0-0.5,0.5-0.5,0.5,0c0.1,0.5,0.2,0.9,0.7,1.4c0.3,0.4,2.4,0.9,3.1,0.3c0.6-0.5,0.5-1.6-0.2-2
		c-0.6-0.4-3.2-1-3.6-1.7c-0.7-1.2,0.6-2.3,1.2-2.6c0.9-0.5,2-0.3,2.3-0.3c0.4,0,0.8,0.1,0.9-0.3c0-0.4,0.3-0.3,0.4,0
		c0.1,1.1,0.2,0.4,0.2,1.6c0,0.5-0.2,0.5-0.4,0.1c-0.1-0.3-1.7-1.6-3-0.8C54.3,40.3,54.7,40.9,55.7,41.1L55.7,41.1z M58.8,48.5
		c-0.5,0.4-0.8,0.9-1.2,1.3c-0.4-0.2-0.9-0.7-1.3-1c0.7-0.3,1-0.7,1.3-1.2C57.8,48.2,58.3,48.4,58.8,48.5L58.8,48.5z M51.9,51.3
		c0.6-0.4,1.5-2.2,1.7-2.6c0.1-0.4,0.4-0.3,0.3,0.2c-0.1,0.6-0.3,2-0.2,2.3c0.1,0.1,0.9,0.1,1.3,0.1c0.2,0,0.2,0.6,0,0.6
		c-0.2,0-1.2,0.1-1.2,0.1c-0.1,0.1-0.1,2.1,0.1,2.4c0.4,0.4,0.7,0.7,1.3,0.1c0.3-0.3,0.5,0,0.2,0.3c-0.2,0.2-0.9,1.1-1.1,1.5
		c-0.2,0.4-1.2,0.1-1.5-0.4c-0.5-0.8-0.3-2.3-0.3-3.8C52.5,52.1,51.5,51.6,51.9,51.3L51.9,51.3z M51.2,46.9
		c-0.4,0.3-1.2-0.2-1.5-0.7c-0.5-0.8-0.3-2.6-0.3-4.1c0.1,0-0.3-0.4-0.6-0.4c-0.4-0.1-0.5-0.2,0.1-0.5c0.7-0.3,1.9-2.1,2.1-2.5
		c0.1-0.4,0.4,0,0.2,0.4C50.8,40,51,41,51.1,41.3c0,0.1,1.5-0.1,1.8-0.1c0.2,0,0.2,0.6,0,0.6c-0.2,0-2.1,0.2-2.1,0.2
		c-0.1,0.1,0.1,3,0.3,3.2c0,0,0.6,0.5,0.8,0.3c0.3-0.3,0.5,0,0.2,0.3C51.9,46,51.6,46.6,51.2,46.9L51.2,46.9z M44.6,51.4
		c0.7-0.5,1-0.9,1.5-1.4c0.4,0.6,0.6,1.2,1,1.5c0.5-0.4,1.3-0.9,1.7-1.3c0.4,0.2,1,0.5,1,1.8c0,1.3,0.2,3.2,0.2,3.7
		c0,0.2,0.1,0.2,0.4,0.1c0.3-0.1,0.5,0.1,0.2,0.3c-0.3,0.2-1.5,1.1-1.8,1.5c-0.4-0.8-0.5-1.4-0.3-2.2c0.1-0.7,0-2.5,0-2.9
		c0-0.4-0.6-0.5-0.9-0.8c-0.4,0.3-0.4,0.3-0.7,0.6c0,0.5-0.1,4.3,0,4.8c-0.9,0-0.8,0-1.3,0c0-0.7,0-3.7-0.1-4.3
		C45.4,52.2,44.9,51.7,44.6,51.4L44.6,51.4z M38.9,53.4c0.4-2.5,2.8-3.5,3.5-4c0.1,0.7,1,2,1.5,2.5c-0.8,0.7-2.7,2.2-3.4,2.8
		c0.4,0.7,1.9,1.2,2.4,0.7c0.4-0.4,0.8-0.2,0.4,0.2c-0.5,0.6-1.1,1.5-1.4,2.1C40.8,57.2,38.6,55.8,38.9,53.4L38.9,53.4z M38.3,42
		c0.6-0.9,2-1.7,2.9-2.1c0.3,0.4,0.7,0.9,1.1,1.5c-0.4,0.4-0.9,0.8-1.2,1.1c-0.2-0.2-1.3-1.9-2.2-0.7c-0.4,0.6-0.9,2.5,0.6,3.7
		c0.7,0.5,1.5,0.7,2.5,0.6c-0.5,0.7-0.6,0.8-0.9,1.4c-1.4,0.3-2-0.2-2.7-0.8C36.9,45.4,37.4,43.3,38.3,42L38.3,42z M44.7,38.7
		c-0.2-0.4-0.3-0.7-0.8-0.5c-1.3,0.4-2.7,0.8-3.7,0.2c-1.1-0.7-2-0.9-2.1-3.4c0-1.5,1.3-2.7,2.2-3.2c1-0.6,2.7-0.2,3.5,0
		c0.4,0.1,0.7,0.1,0.7-0.4c0-0.3,0.4-0.2,0.4,0c0,0.2,0,3.3,0,3.5c0,0.2-0.5,0.3-0.5,0c0-0.3-0.1-1-0.2-1.6
		c-0.2-0.8-2.3-2.3-3.8-0.3c0,0.1-0.7,1.1-0.6,2c0.1,0.6,0.1,1.5,0.6,2c1.2,1.7,2.9,1.1,3.8-0.3c0.3-0.5,0.3-1.1,0.3-1.5
		c0-0.2,0.5-0.2,0.5,0c0,0.3,0,2.3,0,2.5c0,0.3,0.2,0.5,0.3,0.7C45.5,38.9,45.1,39.3,44.7,38.7L44.7,38.7z M45.8,40.5
		c0.6-0.1,1,1.1,1.5,1.6c-0.1,0.2-0.1,3.5-0.1,3.9c0.1,0.2,0.5,0.4,0.7,0.3c0.3-0.3,0.4,0,0.2,0.2c-0.2,0.2-1.3,1.2-1.6,1.5
		c-0.4-0.3-0.5-0.7-0.6-1.3c-0.7,0.2-1.3,0.5-1.7,1.2c-0.8-0.3-1.3-1-1.4-1.7c0-0.8,0.5-1.2,1.1-1.7c-0.1-0.1-0.2-0.1-0.3-0.2
		c-0.2-0.1-0.4-1.4-0.2-1.7C43.8,41.6,45,40.6,45.8,40.5L45.8,40.5z M52,32.3c-0.3,0.3-1.1,0.8-1.3,1c-0.4-0.2-0.8-0.9-1.1-1.1
		c-0.1,0.1-0.3,0.2-0.5,0.3c0,0.4,0,4.4,0,4.9c-0.6,0-1,0.1-1.4,0c0-0.6,0-3.8,0-4.3c0-0.6-0.6-0.7-1.3-0.9c0.4-0.5,1.2-1.1,1.6-1.4
		c0.6,0.5,1,0.5,1.3,0.9c0.4-0.2,1.1-0.7,1.5-0.9c0.3,0.4,0.9,0.9,1.1,1.2C51.9,31.7,52.3,31.9,52,32.3L52,32.3z M57.8,36.2
		c-0.4,0.2-1.1,0.9-1.7,0.9c-1.8-0.1-4-1.3-3.7-3.7c0.3-2.5,2.3-3.4,3.1-3.4c1,0.1,1.2,0.9,1.7,1.4c-0.8,0.7-2.1,2-2.9,2.8
		c0.2,0.4,1.1,2,3,1.5C58.3,35.4,58.6,35.8,57.8,36.2L57.8,36.2z M64.8,31.9c-0.2,0.2-0.9,0.8-1.7,1.5c0.1,0,0.3,0,0.4,0.1
		c1.3,0.8,1.8,1.9,0.5,2.9c-0.7,0.6-1.9,1.2-3.2,1.3c-0.8,0-2.3-0.7-2.6-1c0.7-0.6,1.4-1.3,1.9-1.8c-0.8-0.6-1.6-1.5-1-2.5
		c0.5-0.7,1.9-1.9,3.3-1.9C63.6,30.6,64.2,31.5,64.8,31.9L64.8,31.9z M65.6,38.6l0.8,0.8v0.8l-0.6,0.5h-0.5l-0.5-0.5l0-1L65.6,38.6
		L65.6,38.6z M67.1,34.6c-1.8,0.1-1.4-0.8-1.1-0.8C67.6,34,67.4,34.6,67.1,34.6L67.1,34.6z M67.1,35.7C65.2,35.5,65.7,35,66,35
		C67.7,35.1,67.3,35.8,67.1,35.7L67.1,35.7z M67.9,46.6l-0.7,0.7l-0.9,0.7c-0.5-0.5-0.8-0.6-0.9-1l0-3.3l-0.8-0.5
		c-0.5,0.4-0.8,0.2-0.4-0.1l1.5-1.4l0.4,0l0.7,1l0,3.5C67.1,46.5,67.1,46.5,67.9,46.6L67.9,46.6z M61,55.2c0-0.8,0.4-1.4,1-2
		c0,0-0.1,0-0.1-0.1c-0.2-0.1-0.4-1.5-0.2-1.8c0.3-0.4,1.5-1.6,2.3-1.7c0.6-0.1,1.4,1.2,1.9,1.7c-0.1,0.2,0.2,3.6,0.2,3.9
		c0.2,0.3,0.8,0.5,0.9,0.2c0.2-0.3,0.5,0,0.2,0.2c-0.2,0.2-1.1,0.9-1.3,1.2c-0.4-0.3-1-0.6-1.4-1.1c-0.8,0.2-1.7,0.8-2.4,1.3
		C61.3,56.7,61,56,61,55.2L61,55.2z M59.8,45.2c-0.5-1.4,0.4-2.8,0.9-3.1c0.4-0.3,1.2-1,1.8-1.4c0.5,0.3,0.9,0.6,1.2,0.7
		c-0.1,0.3-0.2,0.8-0.8,0.8c-0.9,0-1.5-0.2-2,0.3c-0.5,0.5-0.1,1.9,0.5,2.4c0.4,0.4,1.6,0.9,1.8,0.5c0.3-0.6,0.7-0.3,0.3,0.2
		c-0.3,0.4-0.8,1.1-1,1.6C61.5,47.1,60.3,46.6,59.8,45.2L59.8,45.2z M60.1,55.1l-0.7,0.7l-0.6,0.6c-0.5-0.5-0.8-0.6-0.9-1l0-3.2
		l-1-0.5c-0.5,0.4-0.8,0.2-0.4-0.1l1.5-1.4l0.4-0.1l1,1.4l0,3.1C59.7,54.9,59.4,54.9,60.1,55.1L60.1,55.1z M62.5,53.6
		c-1.1,0.9,0.1,1.7,0.5,2c0.4-0.2,0.8-0.3,1.2-0.4c0-0.1-0.1-0.3-0.1-0.5c0-0.2,0-0.5,0.1-0.9C63.4,54,63.1,54,62.5,53.6L62.5,53.6z
		 M64.1,53.5c0-0.5,0.1-1.1,0-1.4c0.1-0.4-1.2-1.2-1.4-1.2c-0.3,0-0.3,0.1-0.6,0.6c-0.1,0.3,0,1,0.1,1.1
		C63,53.4,63.5,53.5,64.1,53.5L64.1,53.5z M62,33.4c0.4-0.3,0.7-0.6,0.8-0.7c-0.5-0.5-1.4-1-1.8-1c-0.4,0-1.2,0.3-0.9,0.7
		c0.3,0.4,0.6,0.9,1.3,1C61.6,33.4,61.8,33.4,62,33.4L62,33.4z M61.4,34.6c-0.6,0.5-1.1,0.9-1.4,1.1c0.2,0.4,1.6,1.4,2.4,1.1
		c0.8-0.4,1.1-1.1,0.4-1.5C62.3,35,61.9,34.8,61.4,34.6L61.4,34.6z M54.2,33.7c0.4-0.3,1.2-1.2,1.8-1.8c-0.3-0.2-0.9-0.6-1.1-1.1
		C53.9,31.5,53.7,32.1,54.2,33.7L54.2,33.7z M45.9,46.2c0-0.2,0-0.3,0-0.5c0-0.2,0-0.7,0-1.3c-0.6,0.4-0.9,0.7-1.5,0.3
		c-1.1,0.9,0.6,1.4,0.9,1.7C45.5,46.2,45.7,46.2,45.9,46.2L45.9,46.2z M45.9,44c0-0.4,0-0.8-0.1-1.1c0.1-0.4-0.7-1.3-0.9-1.3
		c-0.2,0-0.8,0.5-1,0.9c-0.1,0.3-0.2,1,0.1,1.3C44.7,44.5,45,44.6,45.9,44L45.9,44z M41.2,50.9c-2,1.2-1.7,2.6-1,3.5
		c0.4-0.3,1.7-1.2,2.2-1.7C42.1,52.5,41.4,51.4,41.2,50.9L41.2,50.9z M28.8,55.7h4.5v-4.5h-4.5V55.7L28.8,55.7z M28.8,40.2h4.5v-4.5
		h-4.5V40.2L28.8,40.2z M23.5,49.2c-5.3,0-5.3,7.8,0,7.8C28.6,57,28.6,49.2,23.5,49.2L23.5,49.2z M23.5,33.6c-5.1,0-5.2,7.8,0,7.8
		C28.6,41.4,28.6,33.6,23.5,33.6L23.5,33.6z M69.3,79.2c-0.3-0.7-0.8-1.3-1.5-1.7c-3-1.4-8.9,1.7-8.8-2.9c0,0-2.1,1.5-1.1,3.2
		C59.9,81.6,66,77,69.3,79.2L69.3,79.2z M41.9,116.3c-1.7,1.7-2.3,1.7-2.2,2.5c0.4,1,1.1,1.8,1.9,2.7c1,0.8,1.4,1.6,0.6-0.8
		C41.9,119,42,117.8,41.9,116.3L41.9,116.3z M30.2,84.2L30.2,84.2c0.1,3.6-9.8,8.6-14,10.9c6.5,2.2,12.7-3.8,11.9-2.3
		c-0.9,1.7-8.8,8.6-12.3,12.2c2.7,0.7,5.2-1.4,7.1-3.1c2.1-1.8,5.7-6.4,5.2-4.1c-5.8,7.1-10.3,22-7.5,22.9
		c1.6-3.4,8.3-20.5,8.7-20.4c0.4,0.1-0.5,4.5-0.7,7.5c-0.3,6.5-0.4,9.5,1,15.9c0.7-1,1.4-1,2.5-0.9c0.1-0.6,0.1-0.5-0.6-1.4
		c-1.8-2.4,0.3-5.8-0.6-7.8c-0.7-1.7-1.2-0.3-1.5-2.1c0.5-0.5,1.9-0.6,2.5-0.7c0.6-6.6,2.8-10,2-5.8c-0.4,2.1-1.1,5.6-0.8,5.7
		c0.3,0.1,0.3,0.1,0.6,0.2c0.1,0.1,11.1-18.1,5-5.5c-0.8,1.7-4.1,6.1-4.1,6.1c0.9,0.9,1.7,1.9,1.8,2.5c0,0.2,14.8-19.4,4.7-3.6
		c-0.6,1-3.6,4.2-4.4,5.1c-0.1,0.1,0.3,3.7,0.3,3.7c1.5-1.1,3.7-3.2,4.7-4.6c-0.1-2,0.3-1.7,0.4-3.7c0.5-0.3,1.1,0.5,1.8,1.2
		c0.3,0.3,10.1-16.7,4-3.9c-1,2-3.2,4.5-3.3,4.7c0.4,0.4,1,1.8,1.7,3.5c0,0.1,13.1-18.8,5.1-4.5c-0.6,1.1-4.5,5.8-4.5,6
		c1,2.4,1.8,4.7,1.8,4.7c-0.2-1.8-0.6-5.5,3.2-8.5c0.5,3.3,1.4,3.4,2.5,4.4c0.5,0.4,1.4,2.3,1.5,0.7c0.3-4.7-1.2-4.5-2.3-6.5
		c-0.3-0.5-0.2-1.5,0-1.5c9.4,0.3,9.1,9.1,10.6,9.1c-0.7-2.2-0.9-4.4-0.1-6.2c-2.5-1.8-1.9-4.8-1.4-6.2c-2.8-2.9-1.2-9.1,0.1-10.5
		c-1.8-2.6,0.4-4.5-0.1-6.1c-0.8-5.7-5.9-4-7-9.5c-0.8,1-2.3,4.3-1.6,5.4c0.8,1.3,2.5,1.4,2.6,2.3c0,0.4,0.2,1.5-0.1,1.7
		c-1,0.2-1.6-0.7-2.6-1.1c-2-0.8-6.8,2.5-7.1-0.4c-0.2-1.8,0.6-0.5,0.5-2.2c-0.1-1.8-1-0.5-1-2.8c0-1.7,2-2.2,2.1-2.8
		c0.4-1.6,3.3,2.4,5.1-1.9c-1,0.1-3.1-0.6-2.9-1.6c0.5-2.7,0.6-9.2-5.5-7.8c-2.2,0.5-8.3,3.7-9.1,0.2c-2.2,3.9,2.1,3.2,3.5,3.1
		c-0.5,0.4-1.2,0.9-2.8,0.6c-3.4,2.3-15.9,10.2-19.6,12.2C22.6,88.9,30.1,84.2,30.2,84.2L30.2,84.2z M33.8,127.5
		c-1.2-0.5-2.5-0.8-3.5-1.6c0.8,2.6,1.3,4.8,2.8,7.6C33.8,135.1,35.2,131.3,33.8,127.5L33.8,127.5z"/>
</g>
</svg>
